<svg xmlns="http://www.w3.org/2000/svg" width="129" height="36" fill="none"><path fill="#000" d="M1.5 12.8a17.9 17.9 0 0 1 3.7 0c.4 0 .8.2 1.2.4l.9.9c.2.4.3.9.3 1.5s-.1 1.1-.3 1.5c-.2.4-.5.8-.9 1-.3.3-.7.5-1.2.6a6 6 0 0 1-1.4.1H2.7v3.7H1.5v-9.7Zm2.4.8a16.9 16.9 0 0 0-1.2 0v4.1h.2l.3.1h1.5l.8-.4c.3-.2.5-.4.6-.7.2-.3.3-.7.3-1.1l-.2-1-.6-.6-.8-.3-1-.1Zm9.2 6.2H9.5l-1 2.7H7.3l3.8-10h.5l3.7 10h-1.2l-1-2.7Zm-3.3-1h3l-1.2-3-.3-1.5-.4 1.5-1 3Zm7.6-1v-1h1.5c.3 0 .5 0 .7-.2l.6-.3c.1-.2.3-.3.3-.5l.2-.6c0-.3 0-.6-.2-.8 0-.2-.2-.4-.4-.5l-.6-.2-.8-.1a6.4 6.4 0 0 0-2.1.3l-.3-.9a7.3 7.3 0 0 1 3.7-.3c.4 0 .7.2 1 .4.3.1.5.4.6.7.2.3.3.7.3 1.1 0 .5-.1 1-.4 1.4-.4.4-.8.7-1.4.9.6.1 1.2.4 1.5.8.4.4.6 1 .6 1.6a2.8 2.8 0 0 1-1.1 2.3l-1.2.6-1.4.2a8.6 8.6 0 0 1-2.5-.4l.3-1 1 .2 1.3.1h.9l.7-.4.6-.7.2-.8c0-.6-.2-1-.6-1.3-.4-.3-1-.5-1.6-.5h-1.4Zm6.8-5a17.9 17.9 0 0 1 3.7 0c.4 0 .8.2 1.2.4l.9.9c.2.4.3.9.3 1.5s-.1 1.1-.3 1.5c-.2.4-.5.8-.9 1-.3.3-.7.5-1.2.6a6 6 0 0 1-1.4.1H25.3v3.7h-1.1v-9.7Zm2.4.8a16.9 16.9 0 0 0-1.3 0v4.1h.3l.3.1h1.5l.8-.4c.3-.2.5-.4.6-.7.2-.3.3-.7.3-1.1 0-.4-.1-.7-.3-1 0-.2-.3-.4-.5-.6l-.8-.3-1-.1Zm9.2 6.2h-3.6l-1 2.7H30l3.7-10h.6l3.7 10h-1.2l-1-2.7Zm-3.3-1h3l-1.2-3-.3-1.5-.4 1.5-1 3Zm6.8-6.1h5.3v1h-4.1v3a11 11 0 0 1 1.2-.1h1.4l1.1.5c.3.3.6.5.8 1 .2.3.3.7.3 1.3 0 .6-.1 1-.3 1.5a2.9 2.9 0 0 1-2 1.5 5 5 0 0 1-1.8.2 7.6 7.6 0 0 1-1.9-.2v-9.7Zm2.5 8.9.9-.1.7-.4.5-.6.2-.9c0-.4-.1-.8-.3-1 0-.3-.3-.5-.5-.7a2 2 0 0 0-.8-.3 4.8 4.8 0 0 0-1.2 0h-.8v4h.2a55.4 55.4 0 0 0 .8 0h.3Zm4.8-4a6 6 0 0 1 1-3.8c.7-.8 1.7-1.3 3-1.3a4 4 0 0 1 1.8.4c.5.2.9.6 1.2 1 .4.5.6 1 .8 1.6l.2 2.1a6 6 0 0 1-1 3.8c-.7.8-1.7 1.3-3 1.3a4 4 0 0 1-1.8-.4c-.5-.2-.9-.6-1.2-1-.4-.5-.6-1-.8-1.6l-.2-2.1Zm1.2 0c0 .5 0 1 .2 1.5 0 .5.3 1 .5 1.3l.8 1 1.3.2c.9 0 1.5-.3 2-1 .5-.6.8-1.6.8-3 0-.5 0-1-.2-1.5l-.5-1.3c-.2-.4-.5-.7-.9-.9-.3-.2-.7-.3-1.2-.3-.9 0-1.5.3-2 1-.5.6-.8 1.6-.8 3Zm14.4-3.9h-3v8.8H58v-8.8h-3v-1h7.2v1Zm5.2 6h-3.6l-1 2.8h-1.2l3.8-10h.5l3.7 10h-1.2l-1-2.7Zm-3.2-1H67l-1-3-.4-1.4-.4 1.5-1 3Zm12.6-.7H72v4.5h-1.2v-9.8h1.2V17h4.7v-4.3h1.1v9.8h-1.1V18Zm3.1-.4a6 6 0 0 1 1-3.8c.7-.8 1.7-1.3 3-1.3a4 4 0 0 1 1.8.4c.5.2 1 .6 1.2 1 .4.5.6 1 .8 1.6l.2 2.1a6 6 0 0 1-1 3.8c-.7.8-1.7 1.3-3 1.3a4 4 0 0 1-1.8-.4c-.5-.2-.9-.6-1.2-1-.3-.5-.6-1-.7-1.6-.2-.6-.3-1.3-.3-2.1Zm1.2 0 .2 1.5.5 1.3c.2.4.5.7.9 1l1.2.2c.9 0 1.6-.3 2-1 .5-.6.8-1.6.8-3 0-.5 0-1-.2-1.5 0-.5-.2-1-.5-1.3-.2-.4-.5-.7-.8-.9-.4-.2-.8-.3-1.3-.3-.9 0-1.5.3-2 1-.5.6-.8 1.6-.8 3ZM111.2 2.3h-.2L97.5 3.5v23.6L111 35l13.5-7.7V3.6l-13.3-1.4Zm11.4 11.5L111 7.3h-.1l-.2-.2v.1l-11.4 6.6V5.2L111 4.1l11.7 1.1v8.6Zm-11.6-5 11.5 6.4-4.5 2.5-7.2-4V15l6 3.3-1 .5-5-2.9v1.4l3.9 2.2-.8.4-3-1.7v1.4l1.9 1-1.8 1-11.5-6.3L111 8.8Zm-11.6 7.9 11.4 6.5v1l-7.9-4.5V21l8 4.6v1l-8-4.4v1.3l8 4.6 8.2-4.7v-5l3.4-1.9v9.6L111 32.7l-11.6-6.5v-9.5Z"/></svg>