<?xml version="1.0" encoding="UTF-8"?>
<svg xmlns="http://www.w3.org/2000/svg" xmlns:xlink="http://www.w3.org/1999/xlink" width="40px" height="40px" viewBox="0 0 40 40" version="1.1">
<g id="surface1">
<path style=" stroke:none;fill-rule:evenodd;fill:rgb(50.588235%,70.196078%,82.352941%);fill-opacity:1;" d="M 37.949219 21.601562 L 39 20.5 L 34 15.550781 L 34 2.199219 L 27.148438 2.199219 L 27.148438 8.75 L 20.199219 2 L 1.5 20.601562 L 2.550781 21.601562 L 6.449219 17.75 L 6.449219 36.550781 L 4.5 36.550781 L 4.5 38 L 36.601562 38 L 36.601562 36.550781 L 34 36.550781 L 34 17.699219 L 37.898438 21.601562 Z M 28.5 3.699219 L 32.5 3.699219 L 32.5 14.199219 L 28.5 10.25 Z M 32.5 36.5 L 8 36.5 L 8 16.25 L 20.199219 4.101562 L 32.5 16.25 Z M 16.5 34.25 L 24.5 34.25 L 24.5 22.398438 L 16.5 22.398438 Z M 23 32.851562 L 18 32.851562 L 18 23.851562 L 23 23.851562 Z M 20.5 19.648438 C 18.347656 19.648438 16.601562 17.902344 16.601562 15.75 C 16.601562 13.648438 18.300781 11.949219 20.5 11.949219 C 22.648438 11.949219 24.398438 13.648438 24.398438 15.75 C 24.398438 17.898438 22.648438 19.648438 20.5 19.648438 Z M 23 15.75 C 23 14.371094 21.878906 13.25 20.5 13.25 C 19.121094 13.25 18 14.371094 18 15.75 C 18 17.128906 19.121094 18.25 20.5 18.25 C 21.878906 18.25 23 17.128906 23 15.75 Z M 11.5 22.398438 L 10 22.398438 L 10 24.351562 L 11.5 24.351562 L 11.5 22.351562 Z M 13 22.398438 L 14.5 22.398438 L 14.5 24.351562 L 13 24.351562 L 13 22.351562 Z M 11.5 25.398438 L 10 25.398438 L 10 27.300781 L 11.5 27.300781 L 11.5 25.351562 Z M 13 25.398438 L 14.5 25.398438 L 14.5 27.300781 L 13 27.300781 L 13 25.351562 Z M 27.550781 22.398438 L 26.050781 22.398438 L 26.050781 24.351562 L 27.550781 24.351562 L 27.550781 22.351562 Z M 29.050781 22.398438 L 30.550781 22.398438 L 30.550781 24.351562 L 29.050781 24.351562 L 29.050781 22.351562 Z M 27.550781 25.398438 L 26.050781 25.398438 L 26.050781 27.300781 L 27.550781 27.300781 L 27.550781 25.351562 Z M 29.050781 25.398438 L 30.550781 25.398438 L 30.550781 27.300781 L 29.050781 27.300781 L 29.050781 25.351562 Z M 29.050781 25.398438 "/>
</g>
</svg>
