<?xml version="1.0" encoding="UTF-8"?>
<svg xmlns="http://www.w3.org/2000/svg" xmlns:xlink="http://www.w3.org/1999/xlink" width="40px" height="45px" viewBox="0 0 40 44" version="1.1">
<g id="surface1">
<path style=" stroke:none;fill-rule:nonzero;fill:rgb(50.588235%,70.196078%,82.352941%);fill-opacity:1;" d="M 38.21875 12.976562 L 22.839844 12.976562 C 31.410156 8.988281 32.105469 6.464844 31.789062 5.058594 C 31.097656 2.769531 28.261719 1.011719 25.613281 1.949219 C 22.148438 3.179688 21.203125 7.988281 20.257812 11.449219 C 19.058594 7.929688 17.925781 3.472656 15.214844 1.1875 C 14.457031 0.542969 13.324219 -0.101562 11.621094 0.015625 C 9.101562 0.25 5.507812 3.121094 7.023438 6.347656 C 8.410156 9.457031 13.007812 11.449219 16.097656 13.035156 L 2.042969 13.035156 C 1.035156 13.035156 0.277344 13.796875 0.277344 14.675781 L 0.277344 21.246094 C 0.277344 22.183594 1.097656 22.886719 2.042969 22.886719 L 2.230469 22.886719 L 2.230469 44 L 38.15625 44 L 38.15625 22.886719 L 38.21875 22.886719 C 39.226562 22.886719 39.984375 22.125 39.984375 21.246094 L 39.984375 14.675781 C 39.984375 13.738281 39.164062 12.976562 38.21875 12.976562 Z M 26.621094 3.414062 C 27.945312 3.238281 29.710938 4.179688 29.898438 5.292969 C 30.152344 6.875 27.820312 8.34375 26.75 8.988281 C 25.171875 9.984375 23.660156 10.511719 22.210938 11.332031 C 22.714844 9.164062 23.785156 3.765625 26.621094 3.414062 Z M 12.378906 9.164062 C 10.992188 8.285156 8.34375 6.582031 8.410156 4.648438 C 8.472656 2.535156 12 0.835938 13.890625 2.417969 C 16.285156 4.355469 17.421875 8.871094 18.304688 12.035156 C 16.285156 11.097656 14.394531 10.394531 12.378906 9.164062 Z M 16.097656 42.242188 L 4.058594 42.242188 L 4.058594 22.886719 L 16.097656 22.886719 Z M 16.097656 21.128906 L 2.167969 21.128906 L 2.167969 14.734375 L 16.097656 14.734375 Z M 22.398438 42.242188 L 17.925781 42.242188 L 17.925781 14.734375 L 22.398438 14.734375 Z M 36.265625 42.242188 L 24.289062 42.242188 L 24.289062 22.886719 L 36.328125 22.886719 L 36.328125 42.242188 Z M 38.09375 21.128906 L 24.289062 21.128906 L 24.289062 14.734375 L 38.09375 14.734375 Z M 38.09375 21.128906 "/>
</g>
</svg>
