<?xml version="1.0" encoding="UTF-8"?>
<svg xmlns="http://www.w3.org/2000/svg" xmlns:xlink="http://www.w3.org/1999/xlink" width="40px" height="40px" viewBox="0 0 40 40" version="1.1">
<g id="surface1">
<path style=" stroke:none;fill-rule:evenodd;fill:rgb(50.588235%,70.196078%,82.352941%);fill-opacity:1;" d="M 36.25 18.199219 L 36.25 17 C 35.898438 9.25 28.75 3 19.898438 3 C 11.050781 3 3.851562 9.25 3.5 17.050781 L 3.5 18.550781 L 36.25 18.550781 Z M 19.898438 4.5 C 27.898438 4.5 34.449219 10.101562 34.75 17.050781 L 5 17.050781 C 5.351562 10.101562 11.898438 4.5 19.898438 4.5 Z M 11.601562 24.449219 L 8.949219 22.449219 L 6.199219 24.449219 L 3 22.101562 L 3.898438 20.898438 L 6.199219 22.550781 L 8.949219 20.550781 L 11.601562 22.550781 L 14.351562 20.550781 L 17.101562 22.550781 L 19.851562 20.550781 L 22.550781 22.550781 L 25.300781 20.550781 L 28.050781 22.550781 L 30.75 20.550781 L 33.5 22.550781 L 35.800781 20.898438 L 36.648438 22.101562 L 33.5 24.449219 L 30.75 22.449219 L 28.050781 24.449219 L 25.300781 22.449219 L 22.550781 24.449219 L 19.851562 22.449219 L 17.101562 24.449219 L 14.351562 22.449219 Z M 3.101562 26 L 36.851562 26 C 38.050781 26 39 27 39 28.101562 L 39 29.851562 C 39 31.050781 38 32 36.851562 32 L 36.351562 32 L 36.351562 32.5 C 36.324219 35.222656 34.121094 37.421875 31.398438 37.449219 L 8.601562 37.449219 C 5.839844 37.449219 3.601562 35.210938 3.601562 32.449219 L 3.601562 31.949219 L 3.101562 31.949219 C 1.996094 31.953125 1.078125 31.101562 1 30 L 1 28.25 C 1 27 1.949219 26 3.148438 26 Z M 31.5 36 C 33.433594 36 35 34.433594 35 32.5 L 35 32 L 5.050781 32 L 5.050781 32.5 C 5.050781 34.449219 6.550781 36 8.5 36 Z M 36.898438 30.5 C 37.25 30.5 37.550781 30.25 37.550781 29.898438 L 37.601562 29.898438 L 37.601562 28.199219 C 37.601562 27.851562 37.300781 27.550781 36.949219 27.550781 L 3.148438 27.550781 C 2.800781 27.550781 2.5 27.851562 2.5 28.148438 L 2.5 29.898438 C 2.5 30.25 2.800781 30.550781 3.148438 30.550781 L 36.851562 30.550781 Z M 21 10.851562 C 21 11.402344 20.550781 11.851562 20 11.851562 C 19.449219 11.851562 19 11.402344 19 10.851562 C 19 10.296875 19.449219 9.851562 20 9.851562 C 20.550781 9.851562 21 10.296875 21 10.851562 Z M 16 9.351562 C 16.550781 9.351562 17 8.902344 17 8.351562 C 17 7.796875 16.550781 7.351562 16 7.351562 C 15.449219 7.351562 15 7.796875 15 8.351562 C 15 8.902344 15.449219 9.351562 16 9.351562 Z M 25 8.351562 C 25 8.902344 24.550781 9.351562 24 9.351562 C 23.449219 9.351562 23 8.902344 23 8.351562 C 23 7.796875 23.449219 7.351562 24 7.351562 C 24.550781 7.351562 25 7.796875 25 8.351562 Z M 25 8.351562 "/>
</g>
</svg>
