<svg xmlns="http://www.w3.org/2000/svg" width="229" height="39" fill="none"><path fill="#fff" d="M27.3156 26.6366c0 .2513-.0501.4523-.0501.6533-.2506 2.0104-.9022 3.9704-1.9547 5.7797-1.0525 1.8093-2.506 3.2165-4.2602 4.2216-.6516.3016-1.3533.5529-2.055.8042-.7017.201-1.4033.402-2.105.5528-.6015.1005-1.1528.201-1.7542.2513-.6015.0502-1.1528.1005-1.7041.1005h-.6015c-2.3055-.1005-4.61106-.6031-6.86648-1.558C3.75903 36.4369 1.75421 35.1804 0 33.5722l4.6612-7.4884c.05012.0502.05012.0502.10024.1005 0 0 .05012.0502.10024.1005 1.05252 1.1559 2.25541 2.2616 3.55854 3.2165 1.30313.9549 2.85688 1.5077 4.56098 1.6082.0501 0 .1002 0 .1503.0503.0502 0 .1003.0503.1504.0503.0501 0 .1002 0 .1504.0502.0501 0 .1002.0503.1503.0503.1504 0 .3007 0 .5012-.0503.1504 0 .3509-.0502.5012-.1005.6015-.1005 1.2029-.3518 1.7542-.7036.5514-.3518 1.0025-.7539 1.3032-1.3067.0501-.1005.1002-.1508.1002-.2513.0501-.1005.1003-.1508.1003-.2513.1002-.2513.1503-.5026.1503-.7539.0501-.2512.0501-.4523.0501-.6533 0-1.0554-.451-1.9601-1.3532-2.6637-.9022-.7036-1.9046-1.2564-2.9571-1.6585-.4511-.1507-.8521-.3015-1.2029-.402-.401-.1006-.7518-.2011-1.1027-.2513-.0501 0-.1002 0-.1002-.0503-.0501 0-.1002-.0502-.1002-.0502-1.90461-.4524-3.70894-1.2062-5.36292-2.2616-1.65397-1.0555-2.80674-2.5129-3.4583-4.473-.10024-.402-.20048-.8041-.30072-1.2062-.10024-.4523-.15037-.8543-.20049-1.3569-.05012-.1508-.05012-.3016-.05012-.4523v-.4524c0-.3015 0-.6031.05012-.9549 0-.3015.05012-.6031.15037-.9549.10024-.75382.30072-1.55794.60144-2.31181.2506-.75387.60144-1.45747 1.05253-2.11082C4.96192 3.5683 6.56577 2.11082 8.52046 1.20619 10.3749.45232 12.4299 0 14.5349 0c.5012 0 1.0024.0502577 1.5537.100515.5012.050258 1.0526.150774 1.6039.201031 1.4034.251289 2.8067.603093 4.16 1.155924 1.3532.55284 2.6564 1.20619 3.8091 1.9098l-3.2077 7.18683c-1.0525-.75384-2.1551-1.45745-3.3079-2.06054-1.1528-.6031-2.4058-.85439-3.759-.85439h-.5012c-.9022.10052-1.7041.50258-2.5061 1.20619-.7518.70361-1.1527 1.40724-1.1527 2.21134 0 .1005 0 .2513.0501.3518 0 .1005.0501.2513.1503.3518.1003.2513.2005.5026.401.7539.2005.2513.401.4523.6516.6533.4511.3518 1.0525.6534 1.8544.9549.802.3016 1.654.5529 2.5562.8544.7518.201 1.4535.4021 2.1551.5528.7017.1508 1.3032.3518 1.7543.5026 2.1551.7539 3.8091 2.0606 4.9118 3.8699 1.1026 1.8092 1.6539 3.719 1.704 5.7293V25.8827c-.0501.2513-.0501.5026-.1002.7539Zm30.0722 3.116v8.3428H34.6332V.904639h22.7546V9.04639H44.6071v6.48321H56.636v7.9408H44.6071v6.2822h12.7807ZM95.78 28.2951c-1.2028 2.5631-2.9069 4.674-5.1624 6.2822-1.8043 1.2565-3.8091 2.1108-5.9142 2.5632-2.1551.4523-4.3103.7538-6.4655.8543-.6014.0503-1.253.0503-1.8544.0503H64.4548V.854381H77.035c.6015 0 1.2029 0 1.7542.050258 2.1051.100511 4.16.402061 6.215.854381 2.0549.45232 3.9094 1.3067 5.6134 2.56315 2.1552 1.50773 3.8593 3.51804 5.0622 6.03093 1.2029 2.5129 1.9046 5.076 2.0549 7.6894.0502.2513.0502.4523.0502.7036v1.5078c-.1504 2.8144-.802 5.4781-2.0049 8.0412Zm-8.2197-9.1972c0-.1507 0-.3015-.0501-.4523-.1003-1.4575-.4511-2.9149-1.0526-4.2719-.6014-1.3569-1.4534-2.4626-2.5561-3.317-.8019-.6534-1.7041-1.10567-2.7065-1.35696-1.0024-.25129-2.0048-.3518-3.0573-.40206h-3.7591V29.8028c.1003 0 .2506 0 .401.0503.1504 0 .2506.0502.401.0502.1503 0 .3007 0 .4009.0503.1003 0 .2506.0503.3509.0503.4009 0 .8019 0 1.2029-.0503.451 0 .852-.0502 1.2029-.1005 1.0024-.1005 2.0048-.2513 2.957-.5026.9523-.2513 1.8545-.7036 2.6063-1.2062 1.253-.9046 2.1552-2.1108 2.7566-3.6688.6015-1.558.9022-3.1662.9022-4.8247v-.5529Zm54.9317 1.9601c0 .4021-.05.8041-.15 1.2062-.1.8041-.201 1.6082-.451 2.4123-.201.8042-.501 1.6083-.802 2.3622-1.654 3.7693-4.16 6.6842-7.618 8.7951-3.459 2.0605-7.067 3.1159-10.877 3.1159-.25 0-.551 0-.801-.0502-.251 0-.502-.0503-.802-.0503-1.304-.1005-2.607-.3518-3.91-.7036s-2.556-.8544-3.759-1.4575c-3.258-1.7087-5.814-4.1713-7.668-7.3376-1.855-3.1662-2.807-6.4832-2.807-9.9008 0-.5025 0-1.0051.05-1.5077.05-.5026.1-1.0554.251-1.558.2-1.0051.451-2.0103.802-3.0657.35-1.0052.751-2.0103 1.303-2.9652 1.804-3.31702 4.26-5.8299 7.468-7.58892 3.157-1.75903 6.515-2.613407 9.974-2.613407.451 0 .952 0 1.403.050258.501.050258.952.100515 1.403.100515 1.454.201031 2.857.552835 4.261 1.055414 1.403.50258 2.756 1.15593 4.059 1.96005 2.757 1.80928 4.912 4.17139 6.416 7.13659 1.503 2.9652 2.255 6.0812 2.255 9.2977v1.3067Zm-10.124-2.1108c0-.2513-.05-.4524-.05-.7036-.201-1.6585-.702-3.2668-1.504-4.8248-.802-1.558-1.955-2.7642-3.358-3.61854-.401-.20103-.752-.35181-1.153-.50258-.401-.15077-.751-.30155-1.152-.40206-.401-.10052-.752-.15078-1.153-.20103-.401-.05026-.752-.10052-1.153-.10052-1.955 0-3.809.60309-5.463 1.85953-1.654 1.2565-2.857 2.915-3.509 4.9755-.05.1005-.05.1508-.1.2513 0 .1005-.05.1508-.05.2513-.1.3518-.2.7036-.301 1.0554-.1.3518-.15.7539-.25 1.1559-.05.2513-.05.5529-.1.8042 0 .2513-.051.5025-.051.8041v.4523c0 .1508 0 .3016.051.4523.1 2.0606.751 4.0206 1.904 5.8802 1.153 1.8595 2.707 3.0657 4.762 3.6688.25.1005.451.1508.701.201.251.0503.501.1005.752.1508.251.0503.451.0503.702.1005.25 0 .451.0503.701.0503 2.055 0 3.91-.6031 5.564-1.8596 1.654-1.2061 2.857-2.8647 3.558-4.9252.101-.4021.201-.8041.301-1.2062.1-.4523.15-.8544.201-1.3067.05-.2513.05-.5528.1-.8041 0-.2513.05-.5026.05-.7539v-.9046Zm43.855 19.1482-14.084-19.1985c-.401-.4523-.751-1.0051-1.102-1.6585-.351-.6533-.702-1.3067-1.003-2.0103-.25-.5026-.451-1.0052-.651-1.5077-.201-.5026-.401-.9549-.602-1.357.201 1.2062.351 2.4124.451 3.6688.101 1.2565.151 2.5129.151 3.7191v18.3441h-9.774V.904639h9.774L173.366 20.0026c.351.5528.702 1.1056 1.003 1.7087.351.6031.651 1.2062.952 1.8596.251.5026.451 1.0051.702 1.5077.25.5026.451 1.0052.701 1.4575-.05-.4523-.1-.8544-.15-1.2062-.05-.4021-.1-.8041-.15-1.2062-.101-.7539-.151-1.558-.151-2.4124-.05-.8041-.05-1.6585-.05-2.5128V.954897h9.724V38.1456h-9.724v-.0502Zm42.653 0-1.855-6.6843h-14.334l-1.905 6.7345h-10.024L203.489.954897h12.63L229 38.1456h-10.124v-.0502Zm-7.769-26.1843c-.2-.6031-.401-1.2062-.551-1.8596-.151-.6533-.301-1.2564-.451-1.90975-.101-.25129-.151-.45232-.151-.65335-.05-.20103-.1-.40206-.1-.60309l-.15.60309c-.05.20103-.101.45232-.151.65335-.05.10052-.05.15078-.05.20103 0 .05026 0 .15078-.05.20103-.1.6031-.251 1.15593-.401 1.70879-.15.5528-.301 1.1056-.451 1.6585l-3.759 12.3131h10.074l-3.809-12.3131Z"/></svg>