<svg xmlns="http://www.w3.org/2000/svg">

  <symbol id="logo" viewBox="0 0 185 96">
      <path fill="#81B3D3" d="M185 0H0l79.81 90.1c7.04 7.87 18.44 7.87 25.48 0L185 0Z"/><path fill="#23A9E1" d="M42.83.7 92 58.84 140.88 1.1 42.83.7Z"/><path fill="#fff" d="M120.95 17.22c-5.05 0-10 .1-15.07.1 5.95-6.87 8.63-6.17 15.07-.1ZM80.1 22.6h26.48c-1.98-1.2-6.64-7.07-9.22-4.88-.2.2-7.44-8.86-12.2-4.48-4.16 3.78-6.04-.5-10.8 2.49-5.26 3.58 3.17 5.68 5.75 6.87Z"/><path fill="#491213" d="M92.3 0H41.84v22.4L92 83.63l.3-.4 50.27-60.13V0H92.3ZM54.43 1.8h5.45v17.12l-5.45-6.48V1.8Zm-.8 9.75-4.95-5.88V1.8h4.96v9.76Zm19.14-2.69L67.12 1.8h5.65v7.07Zm-6.54 3.78L60.68 1.8h5.55v10.85ZM60.58 3.4l5.45 10.65a39.17 39.17 0 0 0-5.45 4.88V3.39Zm6.44-.5 5.55 6.87a41.79 41.79 0 0 0-5.55 3.68V2.89Zm6.54-.2 4.76 4.18c-1.68.7-3.27 1.5-4.76 2.29V2.69Zm5.56 3.88L73.76 1.8h5.95v4.58c-.3 0-.4.1-.6.2ZM98.05 1.8h4.96l-4.96 2.4v-2.4Zm-5.75 0h4.36L92.3 3.9v-2.1Zm-.9 2-4.15-2h4.16v2Zm-5.44.5-5.06-2.5h5.06v2.5Zm-5.56-1.9 4.66 2.29c-1.58.4-3.17.8-4.66 1.3v-3.6Zm6.35 0 3.37 1.6c-1.19.1-2.28.2-3.47.4v-2h.1Zm10.31.1v1.9c-1.09-.2-2.18-.3-3.37-.4l3.37-1.5Zm6.44-.1v3.68c-1.48-.5-3.07-1-4.75-1.4l4.75-2.28Zm.7-.6h5.85l-5.36 4.78c-.2-.1-.3-.1-.5-.2V1.8Zm13.48 0h5.55l-5.55 10.85V1.8Zm-6.54 0h5.65l-5.65 6.97V1.8Zm-.8.9v6.47a53.1 53.1 0 0 0-4.75-2.29l4.76-4.18Zm6.55.2v10.45c-.7-.5-1.49-1-2.28-1.6-1-.69-2.18-1.39-3.37-2.08l5.65-6.77Zm6.34.5v15.13c-1.09-1-2.87-2.69-5.45-4.58l5.45-10.55Zm.8 15.92V1.8h5.45v11.35l-5.45 6.17c0 .1.1.1 0 0Zm6.24-17.52h4.96v4.68l-4.96 5.78V1.79Zm-82.29 0v2.89l-2.47-2.89h2.48Zm12.7 18.12.1.1s3.56-3.88 9.12-7.57C75.15 8.96 83.08 4.88 92 4.98c8.83 0 16.96 4.18 22.11 7.66 5.56 3.69 9.22 7.47 9.32 7.57l-3.86 4.48c-6.84.9-11.8 6.07-18.44 4.98-3.38-.6-3.47-2.49-4.47-4.48-.69-1.5-1.88-1.3-3.47-1.9-1.38-.59-2.28-1.69-5.15-1.09-2.48.6-2.78 4.48-5.95 4.28-1.69-.1-1.78-2.49-4.16-5.47-6.25-7.57-12.1-6.47-16.07.5l30.05 35.74L60.68 19.9Zm75.24-14.43V1.79h3.18l-3.18 3.69Z"/><path fill="#23A9E1" d="M87.94 70.59 92 64.12l3.97 6.47L92 77.06l-4.06-6.47Z"/><path fill="#fff" d="M64.94 32.16c.5.6.9 1.3.8 2.09-.1.6-.9 1.6-.3 1.79.69-.9 1.48-1.9 2.18-2.79-.6-.2-5.36-5.77-5.36-6.47-1.09.6-2.08 1.2-3.17 1.7.2.7 1.29 0 1.88 0 .8.1 1.4.6 1.99 1.19-1.69 1.4-5.85 4.98-6.35 5.08-.2 0-1.09-.6-1.09-.1 0 .3.9 1 1 1.2.69.89 1.48 1.78 2.17 2.68.6-.3-.1-.7.2-1.2.3-.4 4.86-4.28 6.05-5.17ZM59.68 25.19c.4-.1.6.4 1-.1-.8-1-1.6-1.9-2.38-2.89-.4-.4-.8-.9-.7 0 .1.6-6.05 5.68-6.44 5.78-.5.2-.8-.4-1.1.1.7.9 1.5 1.69 2.19 2.58.2.3.5.6.7.9.29.3.2-.7.2-.6-.1-.5.49-.9.88-1.2 1.49-1.29 5.26-4.57 5.65-4.57ZM50.96 24.3c-1.79.49-3.67-.2-4.16-2-.5-1.8.59-3.78 2.08-4.78 1.39-1 3.57-1 4.36.8.3.8.2 1.7-.1 2.49-.2.5-.6 1 .1 1.3.9-1.1 1.68-2.2 2.58-3.3-1.1-.6-1.49-1.69-2.28-2.58-.9-1.1-2.09-2.1-3.47-2.3-2.88-.39-5.55 2.6-5.75 5.19a6.3 6.3 0 0 0 1.19 3.98c.79 1 1.88 1.6 2.38 2.79.3.1 2.67-1 3.27-1.3-.1-.1-.1-.2-.2-.3 0 0-.7.2 0 0ZM89.92 60.53c-1.19-.8-3.96-4.68-4.56-5.27-.1-.1-.2-.3-.3-.4 0 0-.3.2-.2.2-.2.1.1.6-.1.9-.79 1.19-5.74 4.97-5.94 5.17-.6.4-1.2-.2-1.49.3.7.9 2.78 3.48 2.98 3.58.5.1.1-.8.2-1 .1-.4 2.57-2.38 3.46-3.18.3-.3.7.4.9.7.3.5.5 1 .3 1.6-.1.39-.7.89-.3 1.19.6-.7 2.38-2.8 2.57-3 .3-.29-.6 0-.5-.1-.39.2-.69.2-1.08 0-.1-.1-1.1-1.09-1-1.19.4-.4 1-1 1.5-1.1.89-.19 1.58 1.5 1.68 2.1.1.6.1 1.2-.1 1.8-.1.39-.5.69 0 .89.7-1 1.39-1.9 2.08-2.89.2-.2 0-.3-.1-.3.2 0-.1-.1 0 0ZM79.81 56.35a5.32 5.32 0 0 0 .8-7.27c-1.9-2.49-5.36-3.08-7.74-1.1a5.31 5.31 0 0 0-.8 7.28c1.99 2.68 5.16 2.98 7.74 1.09-.1.1 1.19-.9 0 0Zm-.5-4.68a7.36 7.36 0 0 1-3.66 3.68c-1.79.7-3.08-.8-2.38-2.58a7.77 7.77 0 0 1 3.66-3.69c1.89-.7 3.08.9 2.38 2.6.1-.2-.4.89 0 0ZM73.46 41.81c.5.1.9.5 1.3 0-.7-.9-1.5-1.79-2.19-2.58-.6.3 0 .5-.2 1-.2.39-2.57.79-3.17.89.2-.6.9-2.6 1.2-2.79.49-.4.88.4 1.28-.1L69 34.95c-.3-.4-.6-1-.99-.7 0 0 0 1.5-.1 1.7-.1.19-.89 3.57-1.88 4.47-.5.4-2.18 1.9-2.68 2.1-.5.2-.8-.6-1.19 0 .8.99 1.69 1.98 2.48 2.98.1.1.6.9.8.9.49.1.1-.9.1-1.1.2-.4 2.47-2.69 3.46-2.89 1.2-.2 2.98-.7 4.46-.6-.4 0 .3.1 0 0Z"/><path fill="#DC6243" d="M67.22 22.8c-3.97-.2-2.38-3.98.4-4.78 2.57-.8 8.03 1.7 9.71 3.39-2.77.9-6.34.7-9.32.9-.2-3.2-.99-2.1-.8.49ZM76.64 35.24c-8.53-.1-2.78-13.24.1-12.44 3.37 1.1 2.97 12.54-.1 12.44ZM82.69 30.96c-.8 2.5-2.38 2.99-2.19-.1.2-3.48 2.48-2.68 4.86-3.98 1.98-1.1 3.08-5.18 6.55-2.79 1.58 1.1 3.37.2 3.86 1.8 0-.1-4.46 10.25-1.98 10.25-4.96 0-2.78-5.87-.9-9.86-1.78.9-4.75 6.67-2.37 7.57-1.3 1.7-5.16 3.88-7.14 2.29-1.49-1.1-.7-3.19-.7-5.18ZM86.75 40.52c-3.47 1-8.03-1.2-2.48-2.29 3.47-.7 7.14.7 2.48 2.3-.1 0 .1 0 0 0ZM91.11 40.42c-.7-1.7.6-3.58 2.68-2.19 1.78 1.2-.9 3.09-2.68 2.2ZM88.14 45c-2.38-.7-10.41-.6-5.16-2.79 1.69-.6 10.11.2 5.16 2.8ZM98.55 48.29c-1.39-1.2-2.88-1.3-4.17 0-1.78-3.29-8.22-2.2-11.3-2.7 1.59 4.09 14.67 4.89 15.47 2.7ZM96.66 50.78c-3.17-.1-6.64-.6-9.51.1 1.88.5 6.34 1.79 2.18 2.88 1.48 2.2 3.96 2 5.55.1-.7-.3-1-.7-1.59-1.1 1.59-.3 3.18-1.19 3.37-1.98ZM100.23 46.9c-5.25-3.1-3.96-5.38.4-7.57 2.28-1.1 7.24-5.18 9.32-3.89-3.27 3.89-6.54 7.67-9.72 11.45Z"/><path fill="#F49774" d="M96.47 39.62c-4.47-4.58 6.64-4.18 8.42-5.77 1.3.4 10.71-8.26 12.99-7.67-1.69 1.9-5.16 8.07-7.73 8.07-1.99 0-3.97-.3-5.46 1.1-2.18 2.08-5.84 3.08-8.22 4.27Z"/><path fill="#F4B1A4" d="M97.95 34.05c-2.48 1.3-4.76-3.88-.5-3.39 2.78.3 5.66-.2 8.24.2-1.99 2.3-4.66 3.59-7.74 3.19Z"/><path fill="#fff" d="M110.44 52.27c.2.6.3 1.3.2 1.99-.1.9-.99 2.89-2.18 2.29-1.19-.6-2.18-1.7-3.17-2.59.8-.9 1.49-1.7 2.87-1.3.4.1.7 0 .3-.3-.4-.2-3.07-1.98-3.27-1.78-.3.3.5.9.2 1.49-.2.4-.6.8-.9 1.2-.69-.6-1.88-1.3-1.08-2.3.5-.7 1.28-1.19 2.08-1.29.6-.1 1.78.4 1.98-.2-1.09-.5-2.18-1-3.27-1.6.2.8-3.27 4.49-4.07 5.48-.1.1-.69.6-.69.8 0 .4.6.1.7.1.49-.2 6.74 5.08 6.93 5.48.1.3-.2.6 0 .7 0 0 .2.2.3.2.4-.5 4.46-5.98 5.35-6.18-.79-1.2-1.58-2.4-2.37-3.68-.6.3 0 1 .1 1.49ZM104.3 58.94c-2.08-1.3-5.55 1.3-6.05 1.5-1 .49-1.78-.5-1.29-1.5a3 3 0 0 1 2.28-1.3c.3 0 1.3.2 1.49 0 .1-.2.2-.2 0-.3-.9-.6-1.69-1.19-2.58-1.69-.2 1.1-1.39 1.7-2.08 2.4-.8.89-1.49 1.88-1.49 3.18 0 1.1.7 2.09 1.69 2.69 1.09.6 2.28.1 3.27-.5.6-.4 1.29-.9 1.88-1.2 1-.5 2.28-.1 1.99 1.3a3.44 3.44 0 0 1-2.38 2.29c-.6.2-1.3.1-1.89-.1-.4-.1-.99-.7-1.19-.1 1.2.8 2.28 1.7 3.47 2.49.1-.8.5-1.1 1.1-1.6.69-.6 1.38-1.29 1.98-2.09 1.19-1.69 1.58-4.08-.2-5.47ZM104.3 58.94c.99.6-.6-.5 0 0ZM140.68 19.51c-.7.7-8.33-2.29-8.92-2.78-.3-.1-.3-1.3-.7-.8l-1.18 1.5c-.4.5-.8.99-1.3 1.49-.29.3-.49.5 0 .7.8-.4 5.36 7.26 4.96 8.46-.69.4-6.84-5.08-7.03-5.38-.1-.1.3-1-.2-.9-.2 0-.7.9-.9 1.1-.3.4-.59.7-.89 1.1.3.5.5 0 1 0 .4.1 1.78 1.29 2.18 1.69-.7 0-2.68.1-2.88.1-.9.1-.4-.7-1-.9-.78.9-1.48 1.8-2.27 2.79l-1.29 1.59c-.1.1 0 0 0 .1.3.3.1.2.6 0 .49-.2 6.54 4.88 6.74 5.18.4.4-.2 1 .4 1.2.59-.7 1.18-1.5 1.78-2.2.1-.1.1-.1 0-.2-.4-.4-.5.2-1 .2-.49-.1-4.36-3.38-5.84-4.58 1.78-.1 7.23-.3 8.13-.3.3 0 1.09.9 1.09 1.2-.1.4-.5.6.1.8.5-.6.99-1.1 1.48-1.7l.2-.3c.1-.1.1-.1.2-.3l.2-.2c.4-.5 1.78-1.99 1.58-2.09-.5-.4-.69.5-1.28-.1-.3-.2-1.2-1.79-1.4-2.19-.29-.4.6-.9 1-1.09.8-.5 3.17-1.2 3.47.3 0 .3-.3.5-.1.7 0 0 .2.2.3.2.2-.2 2.38-2.8 3.27-3.99-.3-.2-.4-.3-.5-.4Zm-7.33 2.2c.1 0 .2-.1 0 0-.3.2-.7.5-1 .79-.49-.9-.99-1.8-1.58-2.69 1.19.5 2.38 1 3.47 1.5-.2.1-.5.2-.9.4ZM123.73 32.85c-2.38-1.99-5.55-1.39-7.54.8a5.38 5.38 0 0 0 .6 7.57c2.28 1.89 5.65 1.4 7.53-.8 1.89-2.29 1.79-5.67-.59-7.57Zm-.3 6.58s0 .1 0 0c-1.29 1.29-3.37.1-4.46-.7-1.09-.8-3.07-2.59-1.88-4.08 1.09-1.3 3.07-.2 4.16.5 1.2.8 3.37 2.58 2.28 4.18l-.1.1Z"/><path fill="#fff" d="M123.73 32.85c1.19 1-.3-.2 0 0ZM123.43 39.53c0-.1 0-.1 0 0l.1-.1c-.1 0-.1.1-.1.1ZM117.19 41.91c.1.1.3.3 0 0-2.88-2.19-6.25-1.59-8.43 1.1l-2.98 3.58c.4.5.8-.1 1.3.2.4.3 6.14 5.08 6.24 5.38.2.5-.3.5.1.9.2.1 4.46-5.18 4.86-6.18.89-1.79.3-3.68-1.1-4.98Zm-1.3 6.77c-.2.3 0 .1-.69.7-.3.3-6.34-4.68-6.14-4.88.79-.9 2.58-1.59 3.57-1.3 2.18.5 5.15 3.2 3.27 5.48Z"/>
  </symbol>

  <symbol id="house-icon" viewBox="0 0 40 40">
    <path
      d="M 37.949219 21.601562 L 39 20.5 L 34 15.550781 L 34 2.199219 L 27.148438 2.199219 L 27.148438 8.75 L 20.199219 2 L 1.5 20.601562 L 2.550781 21.601562 L 6.449219 17.75 L 6.449219 36.550781 L 4.5 36.550781 L 4.5 38 L 36.601562 38 L 36.601562 36.550781 L 34 36.550781 L 34 17.699219 L 37.898438 21.601562 Z M 28.5 3.699219 L 32.5 3.699219 L 32.5 14.199219 L 28.5 10.25 Z M 32.5 36.5 L 8 36.5 L 8 16.25 L 20.199219 4.101562 L 32.5 16.25 Z M 16.5 34.25 L 24.5 34.25 L 24.5 22.398438 L 16.5 22.398438 Z M 23 32.851562 L 18 32.851562 L 18 23.851562 L 23 23.851562 Z M 20.5 19.648438 C 18.347656 19.648438 16.601562 17.902344 16.601562 15.75 C 16.601562 13.648438 18.300781 11.949219 20.5 11.949219 C 22.648438 11.949219 24.398438 13.648438 24.398438 15.75 C 24.398438 17.898438 22.648438 19.648438 20.5 19.648438 Z M 23 15.75 C 23 14.371094 21.878906 13.25 20.5 13.25 C 19.121094 13.25 18 14.371094 18 15.75 C 18 17.128906 19.121094 18.25 20.5 18.25 C 21.878906 18.25 23 17.128906 23 15.75 Z M 11.5 22.398438 L 10 22.398438 L 10 24.351562 L 11.5 24.351562 L 11.5 22.351562 Z M 13 22.398438 L 14.5 22.398438 L 14.5 24.351562 L 13 24.351562 L 13 22.351562 Z M 11.5 25.398438 L 10 25.398438 L 10 27.300781 L 11.5 27.300781 L 11.5 25.351562 Z M 13 25.398438 L 14.5 25.398438 L 14.5 27.300781 L 13 27.300781 L 13 25.351562 Z M 27.550781 22.398438 L 26.050781 22.398438 L 26.050781 24.351562 L 27.550781 24.351562 L 27.550781 22.351562 Z M 29.050781 22.398438 L 30.550781 22.398438 L 30.550781 24.351562 L 29.050781 24.351562 L 29.050781 22.351562 Z M 27.550781 25.398438 L 26.050781 25.398438 L 26.050781 27.300781 L 27.550781 27.300781 L 27.550781 25.351562 Z M 29.050781 25.398438 L 30.550781 25.398438 L 30.550781 27.300781 L 29.050781 27.300781 L 29.050781 25.351562 Z M 29.050781 25.398438 "
    />
  </symbol>

  <symbol id="burger-icon" viewBox="0 0 40 40">
    <path
      d="M 36.25 18.199219 L 36.25 17 C 35.898438 9.25 28.75 3 19.898438 3 C 11.050781 3 3.851562 9.25 3.5 17.050781 L 3.5 18.550781 L 36.25 18.550781 Z M 19.898438 4.5 C 27.898438 4.5 34.449219 10.101562 34.75 17.050781 L 5 17.050781 C 5.351562 10.101562 11.898438 4.5 19.898438 4.5 Z M 11.601562 24.449219 L 8.949219 22.449219 L 6.199219 24.449219 L 3 22.101562 L 3.898438 20.898438 L 6.199219 22.550781 L 8.949219 20.550781 L 11.601562 22.550781 L 14.351562 20.550781 L 17.101562 22.550781 L 19.851562 20.550781 L 22.550781 22.550781 L 25.300781 20.550781 L 28.050781 22.550781 L 30.75 20.550781 L 33.5 22.550781 L 35.800781 20.898438 L 36.648438 22.101562 L 33.5 24.449219 L 30.75 22.449219 L 28.050781 24.449219 L 25.300781 22.449219 L 22.550781 24.449219 L 19.851562 22.449219 L 17.101562 24.449219 L 14.351562 22.449219 Z M 3.101562 26 L 36.851562 26 C 38.050781 26 39 27 39 28.101562 L 39 29.851562 C 39 31.050781 38 32 36.851562 32 L 36.351562 32 L 36.351562 32.5 C 36.324219 35.222656 34.121094 37.421875 31.398438 37.449219 L 8.601562 37.449219 C 5.839844 37.449219 3.601562 35.210938 3.601562 32.449219 L 3.601562 31.949219 L 3.101562 31.949219 C 1.996094 31.953125 1.078125 31.101562 1 30 L 1 28.25 C 1 27 1.949219 26 3.148438 26 Z M 31.5 36 C 33.433594 36 35 34.433594 35 32.5 L 35 32 L 5.050781 32 L 5.050781 32.5 C 5.050781 34.449219 6.550781 36 8.5 36 Z M 36.898438 30.5 C 37.25 30.5 37.550781 30.25 37.550781 29.898438 L 37.601562 29.898438 L 37.601562 28.199219 C 37.601562 27.851562 37.300781 27.550781 36.949219 27.550781 L 3.148438 27.550781 C 2.800781 27.550781 2.5 27.851562 2.5 28.148438 L 2.5 29.898438 C 2.5 30.25 2.800781 30.550781 3.148438 30.550781 L 36.851562 30.550781 Z M 21 10.851562 C 21 11.402344 20.550781 11.851562 20 11.851562 C 19.449219 11.851562 19 11.402344 19 10.851562 C 19 10.296875 19.449219 9.851562 20 9.851562 C 20.550781 9.851562 21 10.296875 21 10.851562 Z M 16 9.351562 C 16.550781 9.351562 17 8.902344 17 8.351562 C 17 7.796875 16.550781 7.351562 16 7.351562 C 15.449219 7.351562 15 7.796875 15 8.351562 C 15 8.902344 15.449219 9.351562 16 9.351562 Z M 25 8.351562 C 25 8.902344 24.550781 9.351562 24 9.351562 C 23.449219 9.351562 23 8.902344 23 8.351562 C 23 7.796875 23.449219 7.351562 24 7.351562 C 24.550781 7.351562 25 7.796875 25 8.351562 Z M 25 8.351562 "
    />
  </symbol>

  <symbol id="gift-icon" viewBox="0 0 40 46">
    <path
      d="M 38.21875 12.976562 L 22.839844 12.976562 C 31.410156 8.988281 32.105469 6.464844 31.789062 5.058594 C 31.097656 2.769531 28.261719 1.011719 25.613281 1.949219 C 22.148438 3.179688 21.203125 7.988281 20.257812 11.449219 C 19.058594 7.929688 17.925781 3.472656 15.214844 1.1875 C 14.457031 0.542969 13.324219 -0.101562 11.621094 0.015625 C 9.101562 0.25 5.507812 3.121094 7.023438 6.347656 C 8.410156 9.457031 13.007812 11.449219 16.097656 13.035156 L 2.042969 13.035156 C 1.035156 13.035156 0.277344 13.796875 0.277344 14.675781 L 0.277344 21.246094 C 0.277344 22.183594 1.097656 22.886719 2.042969 22.886719 L 2.230469 22.886719 L 2.230469 44 L 38.15625 44 L 38.15625 22.886719 L 38.21875 22.886719 C 39.226562 22.886719 39.984375 22.125 39.984375 21.246094 L 39.984375 14.675781 C 39.984375 13.738281 39.164062 12.976562 38.21875 12.976562 Z M 26.621094 3.414062 C 27.945312 3.238281 29.710938 4.179688 29.898438 5.292969 C 30.152344 6.875 27.820312 8.34375 26.75 8.988281 C 25.171875 9.984375 23.660156 10.511719 22.210938 11.332031 C 22.714844 9.164062 23.785156 3.765625 26.621094 3.414062 Z M 12.378906 9.164062 C 10.992188 8.285156 8.34375 6.582031 8.410156 4.648438 C 8.472656 2.535156 12 0.835938 13.890625 2.417969 C 16.285156 4.355469 17.421875 8.871094 18.304688 12.035156 C 16.285156 11.097656 14.394531 10.394531 12.378906 9.164062 Z M 16.097656 42.242188 L 4.058594 42.242188 L 4.058594 22.886719 L 16.097656 22.886719 Z M 16.097656 21.128906 L 2.167969 21.128906 L 2.167969 14.734375 L 16.097656 14.734375 Z M 22.398438 42.242188 L 17.925781 42.242188 L 17.925781 14.734375 L 22.398438 14.734375 Z M 36.265625 42.242188 L 24.289062 42.242188 L 24.289062 22.886719 L 36.328125 22.886719 L 36.328125 42.242188 Z M 38.09375 21.128906 L 24.289062 21.128906 L 24.289062 14.734375 L 38.09375 14.734375 Z M 38.09375 21.128906 "
    />
  </symbol>

  <symbol id="vk-icon" viewBox="0 -5 24 24">
    <path d="M23.4 1c.2-.6 0-1-.7-1H20c-.6 0-1 .3-1.1.7 0 0-1.3 3.2-3.2 5.3-.7.6-1 .8-1.3.8-.1 0-.4-.2-.4-.7V.9c0-.6-.2-.9-.7-.9H9.2c-.5 0-.7.3-.7.6 0 .6 1 .8 1 2.5V7c0 .8-.1 1-.5 1-.9 0-3-3.2-4.3-6.9-.3-.7-.5-1-1.2-1H1C.1 0 0 .3 0 .7c0 .7.9 4.1 4.1 8.6 2.2 3 5.3 4.7 8 4.7 1.7 0 2-.4 2-1v-2.3c0-.8 0-.9.6-.9.4 0 1 .2 2.6 1.7 1.8 1.7 2.1 2.5 3.1 2.5H23c.8 0 1.2-.4 1-1.1-.3-.7-1.1-1.8-2.3-3L20 8c-.4-.5-.3-.7 0-1.1 0 0 3.2-4.4 3.5-6Z" clip-rule="evenodd"/>
  </symbol>

  <symbol id="telegram-icon" viewBox="-1 -3 24 24">
    <path  d="m21.44 1.62-3.17 14.95c-.24 1.05-.86 1.31-1.75.82l-4.83-3.56-2.33 2.24c-.25.26-.47.47-.97.47l.35-4.91 8.95-8.09c.39-.35-.09-.54-.6-.2L6.01 10.32 1.26 8.82C.22 8.5.21 7.8 1.48 7.3L20.1.11c.87-.32 1.62.2 1.34 1.51Z"/>
  </symbol>

  <symbol id="youtube-icon" viewBox="0 0 24 24">
    <path  d="M19.18 5H4.81C3.31 5 2 6.3 2 7.8v8.3C2 17.7 3.3 19 4.81 19h14.37A2.8 2.8 0 0 0 22 16.2V7.8c.1-1.5-1.2-2.8-2.8-2.8ZM9.03 15.4V8.6l6.84 3.4-6.84 3.4Z"/>
  </symbol>

  <symbol id="dev-icon" viewBox="0 0 128 34">
    <path d="M1.5 12.8a17.9 17.9 0 0 1 3.7 0c.4 0 .8.2 1.2.4l.9.9c.2.4.3.9.3 1.5s-.1 1.1-.3 1.5c-.2.4-.5.8-.9 1-.3.3-.7.5-1.2.6a6 6 0 0 1-1.4.1H2.7v3.7H1.5v-9.7Zm2.4.8a16.9 16.9 0 0 0-1.2 0v4.1h.2l.3.1h1.5l.8-.4c.3-.2.5-.4.6-.7.2-.3.3-.7.3-1.1l-.2-1-.6-.6-.8-.3-1-.1Zm9.2 6.2H9.5l-1 2.7H7.3l3.8-10h.5l3.7 10h-1.2l-1-2.7Zm-3.3-1h3l-1.2-3-.3-1.5-.4 1.5-1 3Zm7.6-1v-1h1.5c.3 0 .5 0 .7-.2l.6-.3c.1-.2.3-.3.3-.5l.2-.6c0-.3 0-.6-.2-.8 0-.2-.2-.4-.4-.5l-.6-.2-.8-.1a6.4 6.4 0 0 0-2.1.3l-.3-.9a7.3 7.3 0 0 1 3.7-.3c.4 0 .7.2 1 .4.3.1.5.4.6.7.2.3.3.7.3 1.1 0 .5-.1 1-.4 1.4-.4.4-.8.7-1.4.9.6.1 1.2.4 1.5.8.4.4.6 1 .6 1.6a2.8 2.8 0 0 1-1.1 2.3l-1.2.6-1.4.2a8.6 8.6 0 0 1-2.5-.4l.3-1 1 .2 1.3.1h.9l.7-.4.6-.7.2-.8c0-.6-.2-1-.6-1.3-.4-.3-1-.5-1.6-.5h-1.4Zm6.8-5a17.9 17.9 0 0 1 3.7 0c.4 0 .8.2 1.2.4l.9.9c.2.4.3.9.3 1.5s-.1 1.1-.3 1.5c-.2.4-.5.8-.9 1-.3.3-.7.5-1.2.6a6 6 0 0 1-1.4.1H25.3v3.7h-1.1v-9.7Zm2.4.8a16.9 16.9 0 0 0-1.3 0v4.1h.3l.3.1h1.5l.8-.4c.3-.2.5-.4.6-.7.2-.3.3-.7.3-1.1 0-.4-.1-.7-.3-1 0-.2-.3-.4-.5-.6l-.8-.3-1-.1Zm9.2 6.2h-3.6l-1 2.7H30l3.7-10h.6l3.7 10h-1.2l-1-2.7Zm-3.3-1h3l-1.2-3-.3-1.5-.4 1.5-1 3Zm6.8-6.1h5.3v1h-4.1v3a11 11 0 0 1 1.2-.1h1.4l1.1.5c.3.3.6.5.8 1 .2.3.3.7.3 1.3 0 .6-.1 1-.3 1.5a2.9 2.9 0 0 1-2 1.5 5 5 0 0 1-1.8.2 7.6 7.6 0 0 1-1.9-.2v-9.7Zm2.5 8.9.9-.1.7-.4.5-.6.2-.9c0-.4-.1-.8-.3-1 0-.3-.3-.5-.5-.7a2 2 0 0 0-.8-.3 4.8 4.8 0 0 0-1.2 0h-.8v4h.2a55.4 55.4 0 0 0 .8 0h.3Zm4.8-4a6 6 0 0 1 1-3.8c.7-.8 1.7-1.3 3-1.3a4 4 0 0 1 1.8.4c.5.2.9.6 1.2 1 .4.5.6 1 .8 1.6l.2 2.1a6 6 0 0 1-1 3.8c-.7.8-1.7 1.3-3 1.3a4 4 0 0 1-1.8-.4c-.5-.2-.9-.6-1.2-1-.4-.5-.6-1-.8-1.6l-.2-2.1Zm1.2 0c0 .5 0 1 .2 1.5 0 .5.3 1 .5 1.3l.8 1 1.3.2c.9 0 1.5-.3 2-1 .5-.6.8-1.6.8-3 0-.5 0-1-.2-1.5l-.5-1.3c-.2-.4-.5-.7-.9-.9-.3-.2-.7-.3-1.2-.3-.9 0-1.5.3-2 1-.5.6-.8 1.6-.8 3Zm14.4-3.9h-3v8.8H58v-8.8h-3v-1h7.2v1Zm5.2 6h-3.6l-1 2.8h-1.2l3.8-10h.5l3.7 10h-1.2l-1-2.7Zm-3.2-1H67l-1-3-.4-1.4-.4 1.5-1 3Zm12.6-.7H72v4.5h-1.2v-9.8h1.2V17h4.7v-4.3h1.1v9.8h-1.1V18Zm3.1-.4a6 6 0 0 1 1-3.8c.7-.8 1.7-1.3 3-1.3a4 4 0 0 1 1.8.4c.5.2 1 .6 1.2 1 .4.5.6 1 .8 1.6l.2 2.1a6 6 0 0 1-1 3.8c-.7.8-1.7 1.3-3 1.3a4 4 0 0 1-1.8-.4c-.5-.2-.9-.6-1.2-1-.3-.5-.6-1-.7-1.6-.2-.6-.3-1.3-.3-2.1Zm1.2 0 .2 1.5.5 1.3c.2.4.5.7.9 1l1.2.2c.9 0 1.6-.3 2-1 .5-.6.8-1.6.8-3 0-.5 0-1-.2-1.5 0-.5-.2-1-.5-1.3-.2-.4-.5-.7-.8-.9-.4-.2-.8-.3-1.3-.3-.9 0-1.5.3-2 1-.5.6-.8 1.6-.8 3ZM111.2 2.3h-.2L97.5 3.5v23.6L111 35l13.5-7.7V3.6l-13.3-1.4Zm11.4 11.5L111 7.3h-.1l-.2-.2v.1l-11.4 6.6V5.2L111 4.1l11.7 1.1v8.6Zm-11.6-5 11.5 6.4-4.5 2.5-7.2-4V15l6 3.3-1 .5-5-2.9v1.4l3.9 2.2-.8.4-3-1.7v1.4l1.9 1-1.8 1-11.5-6.3L111 8.8Zm-11.6 7.9 11.4 6.5v1l-7.9-4.5V21l8 4.6v1l-8-4.4v1.3l8 4.6 8.2-4.7v-5l3.4-1.9v9.6L111 32.7l-11.6-6.5v-9.5Z"/>
  </symbol>

  <symbol id="like-icon" viewBox="5 5 21 21">
    <path d="m17.4 9.6-.6 2.9-.6 2.5h8.7v2.1L22 24h-9V14l4.4-4.4ZM7 16v8-8ZM18.2 6l-6.6 6.6c-.4.3-.6.8-.6 1.4v10c0 1.1.9 2 2 2h9a2 2 0 0 0 1.8-1.2l3-7.1.1-.7v-2h.1a2 2 0 0 0-2-2h-6.3l1-4.6v-.3c0-.4-.2-.8-.4-1.1l-1.1-1ZM9 14H5v12h4V14Z"/>
  </symbol>

  <symbol id="phone-icon" viewBox="0 0 18 18">
    <path d="M3.6 7.8c1.4 2.8 3.8 5.1 6.6 6.6l2.2-2.2c.3-.3.7-.4 1-.2 1.1.4 2.3.6 3.6.6.6 0 1 .4 1 1V17c0 .6-.4 1-1 1A17 17 0 0 1 0 1c0-.6.4-1 1-1h3.5c.6 0 1 .4 1 1 0 1.2.2 2.4.6 3.6.1.3 0 .7-.2 1L3.6 7.8Z"/>
  </symbol>

  <symbol id="email-icon" viewBox="0 0 18 18">
    <path d="m9 11-1-.3L1 7v7c0 .5.5 1 1 1h14c.5 0 1-.5 1-1V7l-7 3.7-1 .3Zm7-8H2a1 1 0 0 0-1 1v.8L9 9l8-4.2V4c0-.5-.5-1-1-1Z"/>
  </symbol>
</svg>
