<svg xmlns="http://www.w3.org/2000/svg" xmlns:xlink="http://www.w3.org/1999/xlink">

<symbol id="burger" viewBox="0 0 40 40">
<path d="M72.5314 36.3747L72.5314 36.3739C72.5547 35.5459 72.5862 34.4289 72.5144 34.1408C71.8163 18.5181 57.4541 6 39.8005 6C22.147 6 7.68504 18.5181 6.98688 34.1408V37.1451H72.5144C72.5144 36.9766 72.5223 36.6976 72.5314 36.3747ZM39.8005 9.00435C55.7585 9.00435 68.9239 20.2206 69.5223 34.1408H9.979C10.6772 20.2206 23.8425 9.00435 39.8005 9.00435ZM23.2441 48.8621L17.8583 44.8563L12.3727 48.8621L5.9895 44.1553L7.78478 41.7518L12.3727 45.0566L17.8583 41.0508L23.2441 45.0566L28.7297 41.0508L34.2152 45.0566L39.7008 41.0508L45.0866 45.0566L50.5722 41.0508L56.0577 45.0566L61.5433 41.0508L67.0289 45.0566L71.6168 41.7518L73.3123 44.1553L67.0289 48.8621L61.5433 44.8563L56.0577 48.8621L50.5722 44.8563L45.0866 48.8621L39.7008 44.8563L34.2152 48.8621L28.7297 44.8563L23.2441 48.8621ZM6.28871 52.0667H73.7113C76.105 52.0667 78 54.0696 78 56.2727V59.7778C78 62.1813 76.0053 64.0841 73.7113 64.0841H72.7139V65.0855C72.7139 70.4934 68.3255 74.9999 62.8399 74.9999H17.1601C11.7743 74.9999 7.28609 70.5935 7.28609 65.0855V64.0841H6.28871C3.89501 64.0841 2 62.1813 2 59.878V56.3729C2 54.0696 3.89501 52.0667 6.28871 52.0667ZM62.9396 71.9955C66.7297 71.9955 69.8215 68.891 69.8215 65.0855V64.0841H10.1785V65.0855C10.1785 68.891 13.2703 71.9955 17.0604 71.9955H62.9396ZM73.7113 61.0797C74.4095 61.0797 75.0079 60.4788 75.0079 59.7778H75.1076V56.3729C75.1076 55.6719 74.5092 55.071 73.811 55.071H6.28871C5.59055 55.071 4.99213 55.6719 4.99213 56.2727V59.7778C4.99213 60.4788 5.59055 61.0797 6.28871 61.0797H73.7113ZM41.895 21.6228C41.895 22.7289 41.0019 23.6257 39.9003 23.6257C38.7986 23.6257 37.9055 22.7289 37.9055 21.6228C37.9055 20.5166 38.7986 19.6199 39.9003 19.6199C41.0019 19.6199 41.895 20.5166 41.895 21.6228ZM31.9213 18.6184C33.0229 18.6184 33.916 17.7216 33.916 16.6155C33.916 15.5093 33.0229 14.6125 31.9213 14.6125C30.8196 14.6125 29.9265 15.5093 29.9265 16.6155C29.9265 17.7216 30.8196 18.6184 31.9213 18.6184ZM49.874 16.6155C49.874 17.7216 48.9809 18.6184 47.8793 18.6184C46.7776 18.6184 45.8845 17.7216 45.8845 16.6155C45.8845 15.5093 46.7776 14.6125 47.8793 14.6125C48.9809 14.6125 49.874 15.5093 49.874 16.6155Z" fill="#81B3D2"/>
</symbol>


<symbol id="gift" viewBox="0 0 32 38">
<path d="M30.5778 11.2058H30.527H18.1841C25.0921 7.76156 25.6508 5.58358 25.3968 4.36796C24.8381 2.39259 22.5524 0.873068 20.419 1.68348C17.6254 2.74714 16.8635 6.9005 16.1016 9.88889C15.1365 6.84985 14.2222 3.0004 12.0381 1.02502C11.4286 0.467863 10.5143 -0.0892942 9.14286 0.0120071C7.11111 0.21461 4.21587 2.69649 5.43492 5.48228C6.55238 8.16676 10.2603 9.88888 12.7492 11.2565H1.42222C0.609524 11.2565 0 11.9149 0 12.6747V18.3475C0 19.158 0.660317 19.7658 1.42222 19.7658H1.5746V38H30.527V19.7658H30.5778C31.3905 19.7658 32 19.1073 32 18.3475V12.6747C32 11.8643 31.3397 11.2058 30.5778 11.2058ZM21.2317 2.94975C22.2984 2.79779 23.7206 3.6082 23.873 4.57057C24.0762 5.93813 22.1968 7.2044 21.3333 7.76156C20.0635 8.62262 18.8444 9.07847 17.6762 9.78758C18.0825 7.91351 18.946 3.25365 21.2317 2.94975ZM9.75238 7.91351C8.63492 7.15375 6.50159 5.68488 6.55238 4.01341C6.60317 2.18999 9.44762 0.721116 10.9714 2.08868C12.9016 3.76016 13.8159 7.66026 14.527 10.3954C12.9016 9.58498 11.3778 8.97717 9.75238 7.91351ZM12.7492 36.4805H3.04762V19.7658H12.7492V36.4805ZM12.7492 18.2462H1.52381V12.7253H12.7492V18.2462ZM17.8286 36.4805H14.2222V12.7253H17.8286V36.4805ZM29.0032 36.4805H19.3524V19.7658H29.054V36.4805H29.0032ZM30.4762 18.2462H19.3524V12.7253H30.4762V18.2462Z" fill="#81B3D2"/>
</symbol>

<symbol id="house" viewBox="0 0 40 38">
<path d="M15.9015 33.8041H24.2549V21.646H15.9015V33.8041ZM22.7408 32.3289H17.4155V23.1212H22.6886V32.3289H22.7408Z" fill="#81B3D2"/>
<path d="M38.4036 20.6278L39.5 19.5595L34.3313 14.5233V0.7882H27.1265V7.50314L19.9739 0.584717L0.5 19.6104L1.59639 20.6787L5.66867 16.7108V35.9399H3.63253V37.4152H36.994V35.9399H34.3313V16.6599L38.4036 20.6278ZM28.6406 2.31432H32.7651V13.0481L28.6406 9.02927V2.31432ZM32.8173 35.889H7.23494V15.1846L19.9739 2.72129L32.7651 15.1846V35.889H32.8173Z" fill="#81B3D2"/>
<path d="M16.0582 14.4216C16.0582 16.609 17.8855 18.3895 20.0783 18.3895C22.3233 18.3895 24.1506 16.609 24.1506 14.4216C24.1506 12.2341 22.3233 10.5045 20.0783 10.5045C17.8333 10.5045 16.0582 12.2341 16.0582 14.4216ZM20.0783 11.878C21.4879 11.878 22.6888 12.9972 22.6888 14.4216C22.6888 15.7951 21.5402 16.9651 20.0783 16.9651C18.6687 16.9651 17.4679 15.846 17.4679 14.4216C17.4679 13.0481 18.6687 11.878 20.0783 11.878Z" fill="#81B3D2"/>
<path d="M10.8895 21.646H9.32324V23.63H10.8895V21.646Z" fill="#81B3D2"/>
<path d="M13.9698 21.646H12.4036V23.63H13.9698V21.646Z" fill="#81B3D2"/>
<path d="M10.8895 24.6975H9.32324V26.6815H10.8895V24.6975Z" fill="#81B3D2"/>
<path d="M13.9698 24.6975H12.4036V26.6815H13.9698V24.6975Z" fill="#81B3D2"/>
<path d="M27.5443 21.646H25.978V23.63H27.5443V21.646Z" fill="#81B3D2"/>
<path d="M30.6769 21.646H29.1106V23.63H30.6769V21.646Z" fill="#81B3D2"/>
<path d="M27.5443 24.6975H25.978V26.6815H27.5443V24.6975Z" fill="#81B3D2"/>
<path d="M30.6769 24.6975H29.1106V26.6815H30.6769V24.6975Z" fill="#81B3D2"/>
</symbol>

<symbol id="like" viewBox="0 0 23 21">
<path d="M12.9636 3.78L12.3364 6.825L11.7091 9.45H14.3227H20.8045V11.55C20.8045 11.55 20.8045 11.55 20.8045 11.655L17.7727 18.9H8.36364V8.4L12.9636 3.78ZM2.09091 10.5V18.9V10.5ZM13.8 0L6.9 6.93C6.48182 7.245 6.27273 7.77 6.27273 8.4V18.9C6.27273 20.055 7.21364 21 8.36364 21H17.7727C18.6091 21 19.3409 20.475 19.6545 19.74L22.7909 12.285C22.8955 12.075 22.8955 11.76 22.8955 11.55V9.45H23C23 8.295 22.0591 7.35 20.9091 7.35H14.3227L15.3682 2.52V2.205C15.3682 1.785 15.1591 1.365 14.95 1.05L13.8 0ZM4.18182 8.4H0V21H4.18182V8.4Z"/>
</symbol>

<symbol id="logo" viewBox="0 0 185 96">
<path d="M185 0H0L79.8097 90.1011C86.8489 97.9663 98.2503 97.9663 105.289 90.1011L185 0Z" fill="#81B3D3"/>
<path d="M42.8296 0.696915L92.0043 58.8395L140.882 1.09515L42.8296 0.696915Z" fill="#23A9E1"/>
<path d="M120.954 17.2237C115.898 17.2237 110.941 17.3233 105.884 17.3233C111.833 10.4537 114.51 11.1506 120.954 17.2237Z" fill="white"/>
<path d="M80.1071 22.6C88.9307 22.6 97.7544 22.6 106.578 22.6C104.595 21.4052 99.9356 15.5312 97.3579 17.7215C97.1596 17.9207 89.9222 8.86078 85.1633 13.2414C80.9993 17.0246 79.1156 12.7436 74.3568 15.7304C69.1022 19.3145 77.5294 21.4052 80.1071 22.6Z" fill="white"/>
<path d="M92.3017 0H41.8381V22.4008L92.0043 83.6298L92.3017 83.2315L142.567 23.0977V0H92.3017ZM54.4292 1.79207H59.8821V18.9163L54.4292 12.4449V1.79207ZM53.6361 11.5489L48.679 5.67488V1.79207H53.6361V11.5489ZM72.7706 8.86077L67.1195 1.79207H72.7706V8.86077ZM66.2272 12.644L60.6752 1.79207H66.2272V12.644ZM60.5761 3.38501L66.0289 14.0379C63.2529 16.1286 61.3692 18.0202 60.5761 18.9163V3.38501ZM67.0203 2.88722L72.5723 9.75681C71.4818 10.3542 70.3912 11.0511 69.4989 11.6484C68.6066 12.2458 67.8135 12.8431 67.0203 13.4405V2.88722ZM73.5637 2.6881L78.3226 6.86959C76.6372 7.5665 75.0509 8.36298 73.5637 9.15945V2.6881ZM79.1157 6.57091L73.762 1.79207H79.7106V6.37179C79.4132 6.37179 79.314 6.47135 79.1157 6.57091ZM98.052 1.79207H103.009L98.052 4.18149V1.79207ZM92.3017 1.79207H96.664L92.3017 3.88281V1.79207ZM91.4094 3.78325L87.2454 1.79207H91.4094V3.78325ZM85.9566 4.28105L80.9003 1.79207H85.9566V4.28105ZM80.4046 2.38942L85.0643 4.67928C83.478 5.07752 81.8917 5.47576 80.4046 5.97355V2.38942ZM86.7497 2.38942L90.1206 3.98237C88.9308 4.08193 87.8403 4.18149 86.6506 4.38061V2.38942H86.7497ZM97.0605 2.48898V4.38061C95.97 4.18149 94.8794 4.08193 93.6897 3.98237L97.0605 2.48898ZM103.505 2.38942V6.07311C102.018 5.57532 100.431 5.07752 98.7459 4.67928L103.505 2.38942ZM104.199 1.79207H110.048L104.695 6.57091C104.496 6.47135 104.397 6.47135 104.199 6.37179V1.79207ZM117.682 1.79207H123.234L117.682 12.644V1.79207ZM111.139 1.79207H116.79L111.139 8.76121V1.79207ZM110.346 2.6881V9.15945C108.858 8.36298 107.272 7.5665 105.587 6.86959L110.346 2.6881ZM116.889 2.88722V13.3409C116.195 12.8431 115.402 12.3453 114.609 11.748C113.617 11.0511 112.428 10.3542 111.238 9.65725L116.889 2.88722ZM123.234 3.38501V18.518C122.144 17.5224 120.359 15.8299 117.781 13.9383L123.234 3.38501ZM124.027 19.3145V1.79207H129.48V13.1418L124.027 19.3145C124.027 19.4141 124.126 19.4141 124.027 19.3145ZM130.273 1.79207H135.23V6.47135L130.273 12.2458V1.79207ZM47.985 1.79207V4.67928L45.5064 1.79207H47.985ZM60.6752 19.9118L60.7744 20.0114C60.7744 20.0114 64.3435 16.1286 69.8955 12.4449C75.15 8.96033 83.0814 4.8784 92.0043 4.97796C100.828 4.97796 108.958 9.15945 114.113 12.644C119.665 16.3277 123.333 20.111 123.432 20.2105L119.566 24.6907C112.725 25.5867 107.768 30.7638 101.125 29.6687C97.7545 29.0713 97.6554 27.1797 96.664 25.1885C95.97 23.6951 94.7803 23.8942 93.194 23.2969C91.806 22.6995 90.9137 21.6044 88.0386 22.2017C85.56 22.7991 85.2626 26.6819 82.09 26.4828C80.4046 26.3832 80.3054 23.9938 77.926 21.007C71.68 13.4405 65.8306 14.5356 61.8649 21.5048L91.9051 57.2466L60.6752 19.9118ZM135.924 5.47576V1.79207H139.097L135.924 5.47576Z" fill="#491213"/>
<path d="M87.9395 70.5875L92.0043 64.1161L95.97 70.5875L92.0043 77.0589L87.9395 70.5875Z" fill="#23A9E1"/>
<path d="M64.9383 32.1576C65.434 32.755 65.8306 33.4519 65.7315 34.2484C65.6323 34.8457 64.8392 35.8413 65.434 36.0404C66.128 35.1444 66.9212 34.1488 67.6152 33.2528C67.0203 33.0537 62.2615 27.4783 62.2615 26.7814C61.1709 27.3788 60.1795 27.9761 59.0889 28.4739C59.2872 29.1709 60.3778 28.4739 60.9726 28.4739C61.7658 28.5735 62.3606 29.0713 62.9555 29.6687C61.27 31.0625 57.1061 34.6466 56.6103 34.7462C56.4121 34.7462 55.5198 34.1488 55.5198 34.6466C55.5198 34.9453 56.4121 35.6422 56.5112 35.8413C57.2052 36.7374 57.9983 37.6334 58.6923 38.5294C59.2872 38.2307 58.5932 37.8325 58.8906 37.3347C59.188 36.9365 63.7486 33.0537 64.9383 32.1576Z" fill="white"/>
<path d="M59.684 25.1885C60.0805 25.0889 60.2788 25.5867 60.6754 25.0889C59.8823 24.0933 59.0891 23.1973 58.296 22.2017C57.8994 21.8035 57.5028 21.3057 57.602 22.2017C57.7011 22.7991 51.5543 27.8766 51.1577 27.9761C50.662 28.1753 50.3646 27.5779 50.0671 28.0757C50.7611 28.9717 51.5543 29.7682 52.2483 30.6642C52.4466 30.9629 52.744 31.2616 52.9423 31.5603C53.2397 31.859 53.1406 30.8634 53.1406 30.9629C53.0414 30.4651 53.6363 30.0669 54.0328 29.7682C55.52 28.4739 59.2874 25.1885 59.684 25.1885Z" fill="white"/>
<path d="M50.9593 24.2925C49.1748 24.7902 47.291 24.0933 46.7953 22.3013C46.2996 20.5092 47.3902 18.518 48.8773 17.5224C50.2653 16.5268 52.4465 16.5268 53.2396 18.3189C53.537 19.1154 53.4379 20.0114 53.1405 20.8079C52.9422 21.3057 52.5456 21.8035 53.2396 22.1022C54.1319 21.007 54.925 19.9118 55.8173 18.8167C54.7267 18.2193 54.3302 17.1242 53.537 16.2282C52.6447 15.133 51.455 14.1374 50.067 13.9383C47.1919 13.5401 44.5151 16.5268 44.3168 19.1154C44.2176 20.6088 44.7133 21.903 45.5065 23.0977C46.2996 24.0933 47.3902 24.6907 47.8859 25.8854C48.1833 25.985 50.5627 24.8898 51.1576 24.5911C51.0585 24.4916 51.0585 24.392 50.9593 24.2925C50.9593 24.2925 50.2653 24.4916 50.9593 24.2925Z" fill="white"/>
<path d="M89.9224 60.532C88.7327 59.7356 85.9567 55.8527 85.3618 55.2554C85.2627 55.1558 85.1636 54.9567 85.0644 54.8571C85.0644 54.8571 84.767 55.0563 84.8661 55.0563C84.6678 55.1558 84.9653 55.6536 84.767 55.9523C83.9738 57.147 79.0167 60.9303 78.8184 61.1294C78.2236 61.5276 77.6287 60.9303 77.3313 61.4281C78.0253 62.3241 80.1073 64.9126 80.3056 65.0122C80.8013 65.1118 80.4047 64.2157 80.5039 64.0166C80.603 63.6184 83.0816 61.6272 83.9738 60.8307C84.2713 60.532 84.6678 61.2289 84.8661 61.5276C85.1636 62.0254 85.3618 62.5232 85.1636 63.1206C85.0644 63.5188 84.4696 64.0166 84.8661 64.3153C85.461 63.6184 87.2455 61.5276 87.4438 61.3285C87.7413 61.0298 86.849 61.3285 86.9481 61.2289C86.5515 61.4281 86.2541 61.4281 85.8576 61.2289C85.7584 61.1294 84.767 60.1338 84.8661 60.0342C85.2627 59.636 85.8576 59.0386 86.3533 58.9391C87.2455 58.74 87.9396 60.4325 88.0387 61.0298C88.1378 61.6272 88.1378 62.2245 87.9395 62.8219C87.8404 63.2201 87.4438 63.5188 87.9395 63.7179C88.6335 62.7223 89.3275 61.8263 90.0215 60.8307C90.2198 60.6316 90.0215 60.532 89.9224 60.532C90.1207 60.532 89.8233 60.4325 89.9224 60.532Z" fill="white"/>
<path d="M79.8097 56.3505C81.9908 54.4589 82.2883 51.273 80.6028 49.0827C78.7191 46.5937 75.2491 45.9964 72.8697 47.9876C70.6886 49.8792 70.3912 52.9655 72.0766 55.2554C74.0594 57.9435 77.232 58.2422 79.8097 56.3505C79.7106 56.4501 80.9994 55.4545 79.8097 56.3505ZM79.314 51.6713C78.7191 53.1647 77.1328 54.7576 75.6457 55.355C73.8611 56.0519 72.5723 54.5585 73.2663 52.7664C73.9603 51.273 75.4474 49.6801 76.9346 49.0827C78.8183 48.3858 80.008 49.9788 79.314 51.6713C79.4131 51.4721 78.9174 52.5673 79.314 51.6713Z" fill="white"/>
<path d="M73.4646 41.8149C73.9603 41.9144 74.3569 42.3127 74.7535 41.8149C74.0595 40.9189 73.2663 40.0228 72.5723 39.2263C71.9775 39.525 72.5723 39.7241 72.374 40.2219C72.1758 40.6202 69.7963 41.0184 69.2015 41.118C69.3998 40.5206 70.0938 38.5294 70.3912 38.3303C70.8869 37.9321 71.2835 38.7286 71.68 38.2308C70.7878 37.1356 69.8955 36.0405 69.0032 34.9453C68.7058 34.5471 68.4083 33.9497 68.0118 34.2484C68.0118 34.2484 68.0118 35.7418 67.9126 35.9409C67.8135 36.14 67.0203 39.525 66.0289 40.4211C65.5332 40.8193 63.8478 42.3127 63.3521 42.5118C62.8564 42.7109 62.5589 41.9144 62.1624 42.5118C62.9555 43.5074 63.8478 44.503 64.6409 45.4986C64.7401 45.5981 65.2358 46.3946 65.4341 46.3946C65.9298 46.4942 65.5332 45.4986 65.5332 45.2995C65.7315 44.9012 68.0118 42.6114 69.0032 42.4122C70.1929 42.2131 71.9775 41.7153 73.4646 41.8149C73.068 41.8149 73.762 41.9144 73.4646 41.8149Z" fill="white"/>
<path d="M67.2186 22.7991C63.2529 22.5999 64.8392 18.8167 67.6152 18.0202C70.1929 17.2238 75.6457 19.7127 77.3311 21.4052C74.5551 22.3013 70.986 22.1022 68.0117 22.3013C67.8135 19.1154 67.0203 20.2105 67.2186 22.7991Z" fill="#DC6243"/>
<path d="M76.6372 35.244C68.111 35.1444 73.8612 22.0026 76.7364 22.7991C80.1072 23.8942 79.7106 35.3435 76.6372 35.244Z" fill="#DC6243"/>
<path d="M82.685 30.9629C81.8918 33.4519 80.3055 33.9497 80.5038 30.8634C80.7021 27.3788 82.9824 28.1753 85.3618 26.881C87.3447 25.7859 88.4352 21.7039 91.9052 24.0933C93.4915 25.1885 95.2761 24.2925 95.7718 25.8854C95.7718 25.7859 91.3104 36.14 93.7889 36.14C88.8318 36.14 91.0129 30.266 92.8966 26.2836C91.1121 27.1797 88.1378 32.9541 90.5172 33.8501C89.2284 35.5427 85.3618 37.733 83.3789 36.14C81.8918 35.0449 82.685 32.9541 82.685 30.9629Z" fill="#DC6243"/>
<path d="M86.7498 40.5206C83.2798 41.5162 78.7192 39.3259 84.2712 38.2308C87.7412 37.5338 91.4095 38.9277 86.7498 40.5206C86.6507 40.5206 86.8489 40.5206 86.7498 40.5206Z" fill="#DC6243"/>
<path d="M91.112 40.421C90.418 38.7285 91.7068 36.8369 93.7888 38.2307C95.5734 39.4255 92.8965 41.3171 91.112 40.421Z" fill="#DC6243"/>
<path d="M88.1378 45.0008C85.7584 44.3039 77.7278 44.4034 82.9824 42.2131C84.6678 41.6158 93.0949 42.4122 88.1378 45.0008Z" fill="#DC6243"/>
<path d="M98.5478 48.2862C97.1598 47.0915 95.6726 46.992 94.3838 48.2862C92.5992 45.0008 86.155 46.0959 83.0815 45.5981C84.6678 49.6801 97.7546 50.4765 98.5478 48.2862Z" fill="#DC6243"/>
<path d="M96.6639 50.7752C93.4914 50.6756 90.0214 50.1778 87.1462 50.8748C89.0299 51.3726 93.4914 52.6668 89.3274 53.762C90.8145 55.9523 93.2931 55.7532 94.8794 53.8615C94.1854 53.5629 93.8879 53.1646 93.2931 52.7664C94.8794 52.4677 96.4656 51.5717 96.6639 50.7752Z" fill="#DC6243"/>
<path d="M100.233 46.8924C94.9785 43.8061 96.2673 41.5162 100.63 39.3259C102.91 38.2307 107.867 34.1488 109.949 35.4431C106.677 39.3259 103.406 43.1091 100.233 46.8924Z" fill="#DC6243"/>
<path d="M96.4656 39.6246C92.0042 35.0448 103.108 35.4431 104.893 33.8501C106.182 34.2484 115.6 25.5867 117.88 26.1841C116.195 28.0757 112.725 34.2484 110.147 34.2484C108.164 34.2484 106.182 33.9497 104.694 35.3435C102.513 37.4343 98.8451 38.4299 96.4656 39.6246Z" fill="#F49774"/>
<path d="M97.9528 34.0493C95.4742 35.3435 93.1939 30.1664 97.457 30.6642C100.233 30.9629 103.108 30.4651 105.686 30.8634C103.703 33.1532 101.026 34.4475 97.9528 34.0493Z" fill="#F4B1A4"/>
<path d="M110.445 52.2686C110.643 52.866 110.742 53.5629 110.643 54.2598C110.544 55.1558 109.652 57.147 108.462 56.5497C107.272 55.9523 106.281 54.8572 105.289 53.9611C106.082 53.0651 106.776 52.2686 108.164 52.6668C108.561 52.7664 108.858 52.6668 108.462 52.3682C108.065 52.169 105.388 50.377 105.19 50.5761C104.893 50.8748 105.686 51.4721 105.388 52.0695C105.19 52.4677 104.794 52.866 104.496 53.2642C103.802 52.6668 102.613 51.9699 103.406 50.9743C103.901 50.2774 104.694 49.7796 105.488 49.6801C106.082 49.5805 107.272 50.0783 107.47 49.481C106.38 48.9832 105.289 48.4854 104.199 47.888C104.397 48.6845 100.927 52.3682 100.134 53.3638C100.035 53.4633 99.4399 53.9611 99.4399 54.1602C99.4399 54.5585 100.035 54.2598 100.134 54.2598C100.63 54.0607 106.876 59.3373 107.074 59.7356C107.173 60.0342 106.876 60.3329 107.074 60.4325C107.074 60.4325 107.272 60.6316 107.371 60.6316C107.768 60.1338 111.833 54.658 112.725 54.4589C111.932 53.2642 111.139 52.0695 110.346 50.7752C109.751 51.0739 110.346 51.7708 110.445 52.2686Z" fill="white"/>
<path d="M104.298 58.9391C102.216 57.6448 98.746 60.2333 98.2503 60.4325C97.2589 60.9303 96.4657 59.9347 96.9615 58.9391C97.4572 58.1426 98.3494 57.7444 99.2417 57.6448C99.5392 57.6448 100.531 57.8439 100.729 57.6448C100.828 57.4457 100.927 57.4457 100.729 57.3461C99.8366 56.7488 99.0434 56.1514 98.1512 55.6536C97.9529 56.7488 96.7632 57.3461 96.0692 58.043C95.276 58.9391 94.582 59.9347 94.582 61.2289C94.582 62.3241 95.276 63.3197 96.2675 63.917C97.358 64.5144 98.5477 64.0166 99.5392 63.4192C100.134 63.021 100.828 62.5232 101.423 62.2245C102.414 61.7267 103.703 62.125 103.406 63.5188C103.108 64.614 102.018 65.6095 101.026 65.8087C100.431 66.0078 99.7374 65.9082 99.1426 65.7091C98.746 65.6095 98.1512 65.0122 97.9529 65.6095C99.1426 66.406 100.233 67.3021 101.423 68.0985C101.522 67.3021 101.919 67.0034 102.513 66.5056C103.207 65.9082 103.901 65.2113 104.496 64.4148C105.686 62.7223 106.083 60.3329 104.298 58.9391Z" fill="white"/>
<path d="M104.298 58.9391C105.29 59.5364 103.703 58.4413 104.298 58.9391V58.9391Z" fill="white"/>
<path d="M140.683 19.5136C139.989 20.2105 132.355 17.2237 131.76 16.7259C131.463 16.6264 131.463 15.4317 131.066 15.9295C130.67 16.4273 130.273 16.9251 129.877 17.4229C129.48 17.9207 129.084 18.4185 128.588 18.9163C128.29 19.2149 128.092 19.414 128.588 19.6132C129.381 19.2149 133.942 26.881 133.545 28.0757C132.851 28.4739 126.704 22.9982 126.506 22.6995C126.407 22.5999 126.803 21.7039 126.308 21.8035C126.109 21.8035 125.614 22.6995 125.415 22.8986C125.118 23.2969 124.82 23.5955 124.523 23.9938C124.82 24.4916 125.019 23.9938 125.514 23.9938C125.911 24.0933 127.299 25.288 127.696 25.6863C127.002 25.6863 125.019 25.7858 124.82 25.7858C123.928 25.8854 124.424 25.0889 123.829 24.8898C123.036 25.7858 122.342 26.6819 121.549 27.6775C121.152 28.1753 120.656 28.7726 120.26 29.2704C120.161 29.37 120.26 29.2704 120.26 29.37C120.557 29.6686 120.359 29.5691 120.855 29.37C121.35 29.1709 127.398 34.2484 127.596 34.5471C127.993 34.9453 127.398 35.5426 127.993 35.7418C128.588 35.0448 129.183 34.2484 129.778 33.5515C129.877 33.4519 129.877 33.4519 129.778 33.3523C129.381 32.9541 129.282 33.5515 128.786 33.5515C128.29 33.4519 124.424 30.1664 122.937 28.9717C124.721 28.8722 130.174 28.6731 131.066 28.6731C131.364 28.6731 132.157 29.5691 132.157 29.8678C132.058 30.266 131.661 30.4651 132.256 30.6642C132.752 30.0669 133.248 29.5691 133.743 28.9717L133.942 28.6731C134.041 28.5735 134.041 28.5735 134.14 28.3744L134.338 28.1753C134.735 27.6775 136.123 26.1841 135.924 26.0845C135.429 25.6863 135.23 26.5823 134.636 25.985C134.338 25.7858 133.446 24.1929 133.248 23.7947C132.95 23.3964 133.842 22.8986 134.239 22.6995C135.032 22.2017 137.412 21.5048 137.709 22.9982C137.709 23.2969 137.412 23.496 137.61 23.6951C137.61 23.6951 137.808 23.8942 137.907 23.8942C138.106 23.6951 140.287 21.1066 141.179 19.9118C140.882 19.7127 140.782 19.6132 140.683 19.5136ZM133.347 21.7039C133.446 21.7039 133.545 21.6044 133.347 21.7039C133.049 21.903 132.653 22.2017 132.355 22.5004C131.86 21.6044 131.364 20.7083 130.769 19.8123C131.959 20.3101 133.148 20.8079 134.239 21.3057C134.041 21.4052 133.743 21.5048 133.347 21.7039Z" fill="white"/>
<path d="M123.73 32.8545C121.351 30.8634 118.178 31.4607 116.195 33.651C114.312 35.9409 114.51 39.3259 116.79 41.2175C119.07 43.1091 122.441 42.6113 124.325 40.421C126.209 38.1312 126.109 34.7462 123.73 32.8545ZM123.433 39.4255C123.433 39.4255 123.433 39.525 123.433 39.4255C122.144 40.7197 120.062 39.525 118.971 38.7285C117.881 37.9321 115.898 36.14 117.088 34.6466C118.178 33.3523 120.161 34.4475 121.252 35.1444C122.441 35.9409 124.622 37.7329 123.532 39.3259C123.631 39.2263 123.631 39.2263 123.433 39.4255Z" fill="white"/>
<path d="M123.73 32.8546C124.92 33.8501 123.433 32.6554 123.73 32.8546V32.8546Z" fill="white"/>
<path d="M123.433 39.5254C123.433 39.4254 123.433 39.4254 123.433 39.5254C123.533 39.4254 123.533 39.4254 123.533 39.4254C123.433 39.4254 123.433 39.5254 123.433 39.5254Z" fill="white"/>
<path d="M117.187 41.9144C117.286 42.014 117.484 42.2131 117.187 41.9144C114.311 39.7241 110.941 40.3215 108.759 43.0096C107.768 44.2043 106.777 45.399 105.785 46.5937C106.182 47.0915 106.578 46.4942 107.074 46.7928C107.471 47.0915 113.221 51.8704 113.32 52.169C113.518 52.6668 113.023 52.6668 113.419 53.0651C113.617 53.1646 117.881 47.888 118.277 46.8924C119.169 45.1003 118.575 43.2087 117.187 41.9144ZM115.898 48.6845C115.699 48.9831 115.898 48.784 115.204 49.3814C114.906 49.6801 108.859 44.7021 109.057 44.503C109.85 43.6069 111.635 42.91 112.626 43.2087C114.807 43.7065 117.781 46.3946 115.898 48.6845Z" fill="white"/>
</symbol>

<symbol id="mail" viewBox="0 0 16 14">
<path d="M8 8C7.7 8 7.5 7.9 7 7.7L0 4V11C0 11.5 0.5 12 1 12H15C15.5 12 16 11.5 16 11V4L9 7.7C8.5 7.9 8.3 8 8 8ZM15 0H1C0.5 0 0 0.5 0 1V1.8L8 6L16 1.8V1C16 0.5 15.5 0 15 0Z"/>
</symbol>


<symbol id="phone" viewBox="0 0 18 18">
<path d="M3.6 7.8C5 10.6 7.4 12.9 10.2 14.4L12.4 12.2C12.7 11.9 13.1 11.8 13.4 12C14.5 12.4 15.7 12.6 17 12.6C17.6 12.6 18 13 18 13.6V17C18 17.6 17.6 18 17 18C7.6 18 0 10.4 0 1C0 0.4 0.4 0 1 0H4.5C5.1 0 5.5 0.4 5.5 1C5.5 2.2 5.7 3.4 6.1 4.6C6.2 4.9 6.1 5.3 5.9 5.6L3.6 7.8Z"/>
</symbol>

<symbol id="dev" viewBox="0 0 128 35">
<path d="M1.48883 11.848C1.84349 11.764 2.22616 11.708 2.63683 11.68C3.04749 11.652 3.45349 11.638 3.85483 11.638C4.28416 11.638 4.71816 11.68 5.15683 11.764C5.60483 11.848 6.01083 12.002 6.37483 12.226C6.73883 12.45 7.03283 12.758 7.25683 13.15C7.49016 13.542 7.60683 14.0414 7.60683 14.648C7.60683 15.2454 7.49949 15.7494 7.28483 16.16C7.07016 16.5707 6.7855 16.9067 6.43083 17.168C6.07616 17.42 5.67016 17.602 5.21283 17.714C4.75549 17.826 4.28416 17.882 3.79883 17.882C3.75216 17.882 3.67283 17.882 3.56083 17.882C3.45816 17.882 3.34616 17.882 3.22483 17.882C3.11283 17.8727 3.00083 17.8634 2.88883 17.854C2.77683 17.8447 2.69749 17.8354 2.65083 17.826V21.55H1.48883V11.848ZM3.88283 12.646C3.64016 12.646 3.40683 12.6507 3.18283 12.66C2.95883 12.6694 2.78149 12.6927 2.65083 12.73V16.79C2.69749 16.8087 2.77216 16.8227 2.87483 16.832C2.97749 16.832 3.08483 16.8367 3.19683 16.846C3.30883 16.846 3.41616 16.846 3.51883 16.846C3.62149 16.846 3.69616 16.846 3.74283 16.846C4.06016 16.846 4.37283 16.818 4.68083 16.762C4.99816 16.6967 5.28283 16.5847 5.53483 16.426C5.78683 16.2674 5.9875 16.0434 6.13683 15.754C6.2955 15.4647 6.37483 15.096 6.37483 14.648C6.37483 14.2654 6.30016 13.948 6.15083 13.696C6.01083 13.4347 5.8195 13.2294 5.57683 13.08C5.3435 12.9214 5.0775 12.8094 4.77883 12.744C4.48016 12.6787 4.1815 12.646 3.88283 12.646ZM13.0825 18.834H9.47047L8.49047 21.55H7.34247L11.0525 11.596H11.5845L15.3085 21.55H14.0905L13.0825 18.834ZM9.84847 17.826H12.7325L11.6405 14.844L11.2905 13.36H11.2765L10.9265 14.872L9.84847 17.826ZM17.3659 16.916V15.936H17.5899C17.6739 15.936 17.7766 15.936 17.8979 15.936C18.0193 15.936 18.1406 15.9314 18.2619 15.922C18.3926 15.9127 18.5139 15.908 18.6259 15.908C18.7473 15.8987 18.8453 15.8847 18.9199 15.866C19.1626 15.8287 19.3913 15.768 19.6059 15.684C19.8206 15.5907 20.0073 15.474 20.1659 15.334C20.3246 15.194 20.4506 15.0307 20.5439 14.844C20.6373 14.6574 20.6839 14.452 20.6839 14.228C20.6839 13.92 20.6326 13.6634 20.5299 13.458C20.4273 13.2527 20.2826 13.0894 20.0959 12.968C19.9186 12.8374 19.7086 12.7487 19.4659 12.702C19.2326 12.646 18.9806 12.618 18.7099 12.618C18.2059 12.618 17.7766 12.6554 17.4219 12.73C17.0673 12.7954 16.7826 12.8794 16.5679 12.982L16.2599 12.058C16.4466 11.9554 16.7826 11.8527 17.2679 11.75C17.7533 11.638 18.2993 11.582 18.9059 11.582C19.2793 11.582 19.6433 11.624 19.9979 11.708C20.3619 11.7827 20.6839 11.9134 20.9639 12.1C21.2533 12.2774 21.4819 12.5247 21.6499 12.842C21.8273 13.15 21.9159 13.5327 21.9159 13.99C21.9159 14.4567 21.7619 14.9047 21.4539 15.334C21.1459 15.754 20.6839 16.0574 20.0679 16.244V16.3C20.7306 16.3934 21.2533 16.6407 21.6359 17.042C22.0186 17.4434 22.2099 17.98 22.2099 18.652C22.2099 19.184 22.1026 19.646 21.8879 20.038C21.6826 20.4207 21.4073 20.738 21.0619 20.99C20.7259 21.242 20.3339 21.4287 19.8859 21.55C19.4473 21.662 18.9993 21.718 18.5419 21.718C17.9259 21.718 17.4173 21.6807 17.0159 21.606C16.6239 21.5407 16.2973 21.4567 16.0359 21.354L16.3299 20.304C16.5446 20.4067 16.8433 20.4954 17.2259 20.57C17.6179 20.6447 18.0893 20.682 18.6399 20.682C18.9293 20.682 19.2139 20.6447 19.4939 20.57C19.7739 20.486 20.0213 20.3647 20.2359 20.206C20.4599 20.038 20.6373 19.8327 20.7679 19.59C20.9079 19.3474 20.9779 19.058 20.9779 18.722C20.9779 18.134 20.7726 17.7047 20.3619 17.434C19.9513 17.154 19.4146 16.9907 18.7519 16.944C18.6399 16.9347 18.5326 16.93 18.4299 16.93C18.3366 16.9207 18.2386 16.916 18.1359 16.916H17.3659ZM24.1841 11.848C24.5388 11.764 24.9215 11.708 25.3321 11.68C25.7428 11.652 26.1488 11.638 26.5501 11.638C26.9795 11.638 27.4135 11.68 27.8521 11.764C28.3001 11.848 28.7061 12.002 29.0701 12.226C29.4341 12.45 29.7281 12.758 29.9521 13.15C30.1855 13.542 30.3021 14.0414 30.3021 14.648C30.3021 15.2454 30.1948 15.7494 29.9801 16.16C29.7655 16.5707 29.4808 16.9067 29.1261 17.168C28.7715 17.42 28.3655 17.602 27.9081 17.714C27.4508 17.826 26.9795 17.882 26.4941 17.882C26.4475 17.882 26.3681 17.882 26.2561 17.882C26.1535 17.882 26.0415 17.882 25.9201 17.882C25.8081 17.8727 25.6961 17.8634 25.5841 17.854C25.4721 17.8447 25.3928 17.8354 25.3461 17.826V21.55H24.1841V11.848ZM26.5781 12.646C26.3355 12.646 26.1021 12.6507 25.8781 12.66C25.6541 12.6694 25.4768 12.6927 25.3461 12.73V16.79C25.3928 16.8087 25.4675 16.8227 25.5701 16.832C25.6728 16.832 25.7801 16.8367 25.8921 16.846C26.0041 16.846 26.1115 16.846 26.2141 16.846C26.3168 16.846 26.3915 16.846 26.4381 16.846C26.7555 16.846 27.0681 16.818 27.3761 16.762C27.6935 16.6967 27.9781 16.5847 28.2301 16.426C28.4821 16.2674 28.6828 16.0434 28.8321 15.754C28.9908 15.4647 29.0701 15.096 29.0701 14.648C29.0701 14.2654 28.9955 13.948 28.8461 13.696C28.7061 13.4347 28.5148 13.2294 28.2721 13.08C28.0388 12.9214 27.7728 12.8094 27.4741 12.744C27.1755 12.6787 26.8768 12.646 26.5781 12.646ZM35.7778 18.834H32.1658L31.1858 21.55H30.0378L33.7478 11.596H34.2798L38.0038 21.55H36.7858L35.7778 18.834ZM32.5438 17.826H35.4278L34.3358 14.844L33.9858 13.36H33.9718L33.6218 14.872L32.5438 17.826ZM39.3052 11.75H44.6252V12.786H40.4672V15.726C40.6259 15.698 40.8219 15.67 41.0552 15.642C41.2886 15.614 41.5126 15.6 41.7272 15.6C42.2032 15.6 42.6559 15.6467 43.0852 15.74C43.5146 15.824 43.8926 15.9734 44.2192 16.188C44.5459 16.4027 44.8026 16.6967 44.9892 17.07C45.1852 17.434 45.2832 17.896 45.2832 18.456C45.2832 19.016 45.1852 19.5014 44.9892 19.912C44.7932 20.3134 44.5319 20.6447 44.2052 20.906C43.8786 21.158 43.4959 21.3494 43.0572 21.48C42.6279 21.6014 42.1752 21.662 41.6992 21.662C41.5406 21.662 41.3586 21.6574 41.1532 21.648C40.9572 21.648 40.7472 21.6387 40.5232 21.62C40.3086 21.6014 40.0939 21.578 39.8792 21.55C39.6739 21.5314 39.4826 21.4987 39.3052 21.452V11.75ZM41.8392 20.654C42.1379 20.654 42.4226 20.612 42.6932 20.528C42.9639 20.444 43.1972 20.3227 43.3932 20.164C43.5986 19.996 43.7572 19.786 43.8692 19.534C43.9906 19.282 44.0512 18.988 44.0512 18.652C44.0512 18.2227 43.9812 17.8774 43.8412 17.616C43.7106 17.3454 43.5332 17.1354 43.3092 16.986C43.0852 16.8367 42.8239 16.7387 42.5252 16.692C42.2359 16.636 41.9326 16.608 41.6152 16.608C41.5312 16.608 41.4332 16.6127 41.3212 16.622C41.2092 16.6314 41.0972 16.6407 40.9852 16.65C40.8732 16.6594 40.7706 16.6734 40.6772 16.692C40.5839 16.7014 40.5139 16.7107 40.4672 16.72V20.57C40.5326 20.5887 40.6166 20.6027 40.7192 20.612C40.8312 20.6214 40.9479 20.6307 41.0692 20.64C41.1999 20.6494 41.3306 20.654 41.4612 20.654C41.5919 20.654 41.7179 20.654 41.8392 20.654ZM46.5965 16.65C46.5965 15.0167 46.9418 13.766 47.6325 12.898C48.3232 12.0207 49.3078 11.582 50.5865 11.582C51.2772 11.582 51.8745 11.7034 52.3785 11.946C52.8825 12.1887 53.2978 12.534 53.6245 12.982C53.9605 13.4207 54.2078 13.9527 54.3665 14.578C54.5252 15.194 54.6045 15.8847 54.6045 16.65C54.6045 18.2834 54.2545 19.5387 53.5545 20.416C52.8638 21.284 51.8745 21.718 50.5865 21.718C49.9052 21.718 49.3125 21.5967 48.8085 21.354C48.3138 21.1114 47.8985 20.7707 47.5625 20.332C47.2358 19.884 46.9932 19.352 46.8345 18.736C46.6758 18.1107 46.5965 17.4154 46.5965 16.65ZM47.8285 16.65C47.8285 17.1914 47.8798 17.7047 47.9825 18.19C48.0945 18.6754 48.2625 19.1047 48.4865 19.478C48.7105 19.842 48.9952 20.136 49.3405 20.36C49.6952 20.5747 50.1105 20.682 50.5865 20.682C51.4545 20.682 52.1358 20.3554 52.6305 19.702C53.1252 19.0394 53.3725 18.022 53.3725 16.65C53.3725 16.118 53.3165 15.6094 53.2045 15.124C53.1018 14.6294 52.9338 14.2 52.7005 13.836C52.4765 13.4627 52.1872 13.1687 51.8325 12.954C51.4872 12.73 51.0718 12.618 50.5865 12.618C49.7278 12.618 49.0512 12.9494 48.5565 13.612C48.0712 14.2654 47.8285 15.278 47.8285 16.65ZM62.2309 12.786H59.1789V21.55H58.0169V12.786H54.9649V11.75H62.2309V12.786ZM67.3872 18.834H63.7752L62.7952 21.55H61.6472L65.3572 11.596H65.8892L69.6132 21.55H68.3952L67.3872 18.834ZM64.1532 17.826H67.0372L65.9452 14.844L65.5952 13.36H65.5812L65.2312 14.872L64.1532 17.826ZM76.7806 17.056H72.0766V21.55H70.9146V11.75H72.0766V16.02H76.7806V11.75H77.9426V21.55H76.7806V17.056ZM79.9149 16.65C79.9149 15.0167 80.2602 13.766 80.9509 12.898C81.6415 12.0207 82.6262 11.582 83.9049 11.582C84.5955 11.582 85.1929 11.7034 85.6969 11.946C86.2009 12.1887 86.6162 12.534 86.9429 12.982C87.2789 13.4207 87.5262 13.9527 87.6849 14.578C87.8435 15.194 87.9229 15.8847 87.9229 16.65C87.9229 18.2834 87.5729 19.5387 86.8729 20.416C86.1822 21.284 85.1929 21.718 83.9049 21.718C83.2235 21.718 82.6309 21.5967 82.1269 21.354C81.6322 21.1114 81.2169 20.7707 80.8809 20.332C80.5542 19.884 80.3115 19.352 80.1529 18.736C79.9942 18.1107 79.9149 17.4154 79.9149 16.65ZM81.1469 16.65C81.1469 17.1914 81.1982 17.7047 81.3009 18.19C81.4129 18.6754 81.5809 19.1047 81.8049 19.478C82.0289 19.842 82.3135 20.136 82.6589 20.36C83.0135 20.5747 83.4289 20.682 83.9049 20.682C84.7729 20.682 85.4542 20.3554 85.9489 19.702C86.4435 19.0394 86.6909 18.022 86.6909 16.65C86.6909 16.118 86.6349 15.6094 86.5229 15.124C86.4202 14.6294 86.2522 14.2 86.0189 13.836C85.7949 13.4627 85.5055 13.1687 85.1509 12.954C84.8055 12.73 84.3902 12.618 83.9049 12.618C83.0462 12.618 82.3695 12.9494 81.8749 13.612C81.3895 14.2654 81.1469 15.278 81.1469 16.65Z"/>
<path d="M114.6 0H114.5L101 1.4V26.1L114.5 34.1L127.9 26.1V1.4L114.6 0ZM126 12.1L114.5 5.3V5.2H114.4L114.3 5.1V5.2L102.9 12.1V3.1L114.4 1.9L126 3.1V12.1ZM114.4 6.8L125.9 13.5L121.4 16.1L114.3 11.9V13.3L120.2 16.8L119.3 17.3L114.3 14.3V15.7L118.1 18L117.3 18.5L114.3 16.7V18.1L116.2 19.2L114.4 20.3L103 13.6L114.4 6.8ZM102.9 15.1L114.3 21.9V22.9L106.4 18.2V19.6L114.4 24.4V25.5L106.4 20.8V22.2L114.4 27L122.5 22.1V16.9L125.9 14.9V24.9L114.4 31.8L102.9 25V15.1Z"/>
</symbol>

<symbol id="telegram" viewBox="0 0 24 24">
<path d="M22.4393 4.62225L19.2705 19.566C19.0313 20.6205 18.408 20.883 17.5223 20.3865L12.6938 16.8285L10.3643 19.0695C10.1063 19.3275 9.891 19.5428 9.39375 19.5428L9.741 14.6258L18.6893 6.54C19.0785 6.1935 18.6045 6.00075 18.0848 6.348L7.02225 13.314L2.25976 11.823C1.22401 11.4998 1.20526 10.7873 2.47576 10.29L21.1035 3.11325C21.966 2.79 22.7205 3.30525 22.4393 4.623V4.62225Z" />
</symbol>

<symbol id="vk" viewBox="0 0 24 24">
<g clip-path="url(#clip0_29549_1753)">
<path fill-rule="evenodd" clip-rule="evenodd" d="M23.45 5.948C23.616 5.402 23.45 5 22.655 5H20.03C19.362 5 19.054 5.347 18.887 5.73C18.887 5.73 17.552 8.926 15.661 11.002C15.049 11.604 14.771 11.795 14.437 11.795C14.27 11.795 14.019 11.604 14.019 11.057V5.948C14.019 5.292 13.835 5 13.279 5H9.151C8.734 5 8.483 5.304 8.483 5.593C8.483 6.214 9.429 6.358 9.526 8.106V11.904C9.526 12.737 9.373 12.888 9.039 12.888C8.149 12.888 5.984 9.677 4.699 6.003C4.45 5.288 4.198 5 3.527 5H0.9C0.15 5 0 5.347 0 5.73C0 6.412 0.89 9.8 4.145 14.281C6.315 17.341 9.37 19 12.153 19C13.822 19 14.028 18.632 14.028 17.997V15.684C14.028 14.947 14.186 14.8 14.715 14.8C15.105 14.8 15.772 14.992 17.33 16.467C19.11 18.216 19.403 19 20.405 19H23.03C23.78 19 24.156 18.632 23.94 17.904C23.702 17.18 22.852 16.129 21.725 14.882C21.113 14.172 20.195 13.407 19.916 13.024C19.527 12.533 19.638 12.314 19.916 11.877C19.916 11.877 23.116 7.451 23.449 5.948H23.45Z" fill="white"/>
</g>
<defs>
<clipPath id="clip0_29549_1753">
<rect width="24" height="24" fill="white"/>
</clipPath>
</defs>
</symbol>


<symbol id="youtube" viewBox="0 0 24 24">
<path d="M19.1813 5H4.81331C3.30618 5 2 6.3 2 7.8V16.1C2 17.7 3.30618 19 4.81331 19H19.1813C20.7889 19 21.9946 17.7 21.9946 16.2V7.8C22.095 6.3 20.7889 5 19.1813 5ZM9.03326 15.4V8.6L15.8656 12L9.03326 15.4Z"/>
</symbol>


</svg>
