<svg viewBox="0 0 40 36" fill="none" xmlns="http://www.w3.org/2000/svg">
<path d="M37.7428 23.6255H2.25722C0.997375 23.6255 0 24.6386 0 25.8036V27.5764C0 28.7415 0.997375 29.7039 2.25722 29.7039H2.78215V30.2104C2.78215 32.9963 5.14436 35.2251 7.979 35.2251H32.021C34.9081 35.2251 37.2178 32.9457 37.2178 30.2104V29.7039H37.7428C38.9501 29.7039 40 28.7415 40 27.5258V25.7529C40 24.6386 39.0026 23.6255 37.7428 23.6255ZM35.6955 30.2104C35.6955 32.1352 34.0682 33.7055 32.0735 33.7055H7.92651C5.93176 33.7055 4.30446 32.1352 4.30446 30.2104V29.7039H35.6955V30.2104ZM38.4252 27.5258C38.4252 27.8804 38.1102 28.1843 37.7428 28.1843H2.25722C1.88976 28.1843 1.5748 27.8804 1.5748 27.5258V25.7529C1.5748 25.449 1.88976 25.1451 2.25722 25.1451H37.7953C38.1627 25.1451 38.4777 25.449 38.4777 25.8036V27.5258H38.4252Z" fill="#81B3D2"/>
<path d="M8.50395 19.5224L11.3386 21.5485L14.2257 19.5224L17.1129 21.5485L20 19.5224L22.8347 21.5485L25.7218 19.5224L28.6089 21.5485L31.4961 19.5224L34.3832 21.5485L37.6903 19.1678L36.7979 17.9521L34.3832 19.6237L31.4961 17.5975L28.6089 19.6237L25.7218 17.5975L22.8347 19.6237L20 17.5975L17.1129 19.6237L14.2257 17.5975L11.3386 19.6237L8.50395 17.5975L5.61682 19.6237L3.20212 17.9521L2.25723 19.1678L5.61682 21.5485L8.50395 19.5224Z" fill="#81B3D2"/>
<path d="M36.9784 15.775C36.9784 15.4856 37.027 14.521 36.9784 14.3281C36.6377 6.80396 29.6287 0.775024 21.0135 0.775024C12.3983 0.775024 5.34071 6.80396 5 14.3281C5 14.521 5 15.4856 5 15.775H36.9784ZM21.0135 2.22197C28.8012 2.22197 35.2261 7.6239 35.5182 14.3281H6.4602C6.80091 7.6239 13.2258 2.22197 21.0135 2.22197Z" fill="#81B3D2"/>
<path d="M20 8.93616C20.5798 8.93616 21.0499 8.4826 21.0499 7.9231C21.0499 7.3636 20.5798 6.91003 20 6.91003C19.4202 6.91003 18.9501 7.3636 18.9501 7.9231C18.9501 8.4826 19.4202 8.93616 20 8.93616Z" fill="#81B3D2"/>
<path d="M15.8005 6.45374C16.3803 6.45374 16.8504 6.00017 16.8504 5.44067C16.8504 4.88118 16.3803 4.42761 15.8005 4.42761C15.2207 4.42761 14.7506 4.88118 14.7506 5.44067C14.7506 6.00017 15.2207 6.45374 15.8005 6.45374Z" fill="#81B3D2"/>
<path d="M24.1995 6.45374C24.7793 6.45374 25.2493 6.00017 25.2493 5.44067C25.2493 4.88118 24.7793 4.42761 24.1995 4.42761C23.6196 4.42761 23.1496 4.88118 23.1496 5.44067C23.1496 6.00017 23.6196 6.45374 24.1995 6.45374Z" fill="#81B3D2"/>
</svg>
